<svg xmlns="http://www.w3.org/2000/svg" xmlns:xlink="http://www.w3.org/1999/xlink" contentStyleType="text/css" height="535px" preserveAspectRatio="none" style="width:969px;height:535px;background:#FFFFFF;" version="1.1" viewBox="0 0 969 535" width="969px" zoomAndPan="magnify"><title>Adapter Pattern: Hotel Service Interaction</title><defs/><g><text fill="#000000" font-family="sans-serif" font-size="14" font-weight="bold" lengthAdjust="spacing" textLength="277.7373" x="344.1494" y="30.1074">Adapter Pattern: Hotel Service Interaction</text><rect fill="#FFFFFF" height="245.0371" style="stroke:#181818;stroke-width:1.0;" width="10" x="277.6245" y="156.5332"/><rect fill="#FFFFFF" height="182.4551" style="stroke:#181818;stroke-width:1.0;" width="10" x="507.4561" y="187.8242"/><rect fill="#FFFFFF" height="31.291" style="stroke:#181818;stroke-width:1.0;" width="10" x="741.5977" y="307.6973"/><line style="stroke:#181818;stroke-width:0.5;stroke-dasharray:5.0,5.0;" x1="57" x2="57" y1="123.2422" y2="528.7344"/><line style="stroke:#181818;stroke-width:0.5;stroke-dasharray:5.0,5.0;" x1="282.4248" x2="282.4248" y1="123.2422" y2="528.7344"/><line style="stroke:#181818;stroke-width:0.5;stroke-dasharray:5.0,5.0;" x1="511.708" x2="511.708" y1="123.2422" y2="528.7344"/><line style="stroke:#181818;stroke-width:0.5;stroke-dasharray:5.0,5.0;" x1="746.3428" x2="746.3428" y1="123.2422" y2="528.7344"/><text fill="#000000" font-family="sans-serif" font-size="14" lengthAdjust="spacing" textLength="99.5859" x="5" y="119.7285">TravelController</text><ellipse cx="57.793" cy="53.1211" fill="#E2E2F0" rx="8" ry="8" style="stroke:#181818;stroke-width:0.5;"/><path d="M57.793,61.1211 L57.793,88.1211 M44.793,69.1211 L70.793,69.1211 M57.793,88.1211 L44.793,103.1211 M57.793,88.1211 L70.793,103.1211 " fill="none" style="stroke:#181818;stroke-width:0.5;"/><rect fill="#E2E2F0" height="51.2422" rx="2.5" ry="2.5" style="stroke:#181818;stroke-width:0.5;" width="142.3994" x="211.4248" y="71"/><text fill="#000000" font-family="sans-serif" font-size="14" font-style="italic" lengthAdjust="spacing" textLength="64.6064" x="250.3213" y="93.1074">&#171;Adapter&#187;</text><text fill="#000000" font-family="sans-serif" font-size="14" lengthAdjust="spacing" textLength="128.3994" x="218.4248" y="111.7285">HotelServiceAdapter</text><rect fill="#E2E2F0" height="51.2422" rx="2.5" ry="2.5" style="stroke:#181818;stroke-width:0.5;" width="131.4961" x="446.708" y="71"/><text fill="#000000" font-family="sans-serif" font-size="14" font-style="italic" lengthAdjust="spacing" textLength="117.4961" x="453.708" y="93.1074">&#171;External System&#187;</text><text fill="#000000" font-family="sans-serif" font-size="14" lengthAdjust="spacing" textLength="55.248" x="484.832" y="111.7285">HotelAPI</text><rect fill="#E2E2F0" height="51.2422" rx="2.5" ry="2.5" style="stroke:#181818;stroke-width:0.5;" width="166.5098" x="663.3428" y="71"/><text fill="#000000" font-family="sans-serif" font-size="14" font-style="italic" lengthAdjust="spacing" textLength="64.6064" x="714.2944" y="93.1074">&#171;Adapter&#187;</text><text fill="#000000" font-family="sans-serif" font-size="14" lengthAdjust="spacing" textLength="152.5098" x="670.3428" y="111.7285">TripAdvisorHotelAdapter</text><rect fill="#FFFFFF" height="245.0371" style="stroke:#181818;stroke-width:1.0;" width="10" x="277.6245" y="156.5332"/><rect fill="#FFFFFF" height="182.4551" style="stroke:#181818;stroke-width:1.0;" width="10" x="507.4561" y="187.8242"/><rect fill="#FFFFFF" height="31.291" style="stroke:#181818;stroke-width:1.0;" width="10" x="741.5977" y="307.6973"/><polygon fill="#181818" points="265.6245,152.5332,275.6245,156.5332,265.6245,160.5332" style="stroke:#181818;stroke-width:1.0;"/><line style="stroke:#181818;stroke-width:1.0;" x1="57.793" x2="271.6245" y1="156.5332" y2="156.5332"/><text fill="#000000" font-family="sans-serif" font-size="13" lengthAdjust="spacing" textLength="179.2197" x="78.0989" y="151.2705">executeRequest(hotelRequest)</text><polygon fill="#181818" points="495.4561,183.8242,505.4561,187.8242,495.4561,191.8242" style="stroke:#181818;stroke-width:1.0;"/><line style="stroke:#181818;stroke-width:1.0;" x1="287.6245" x2="501.4561" y1="187.8242" y2="187.8242"/><text fill="#000000" font-family="sans-serif" font-size="13" lengthAdjust="spacing" textLength="142.3525" x="326.364" y="182.5615">findRooms(geoId, dates)</text><line style="stroke:#181818;stroke-width:1.0;" x1="517.4561" x2="559.4561" y1="219.1152" y2="219.1152"/><line style="stroke:#181818;stroke-width:1.0;" x1="559.4561" x2="559.4561" y1="219.1152" y2="232.1152"/><line style="stroke:#181818;stroke-width:1.0;" x1="518.4561" x2="559.4561" y1="232.1152" y2="232.1152"/><polygon fill="#181818" points="528.4561,228.1152,518.4561,232.1152,528.4561,236.1152" style="stroke:#181818;stroke-width:1.0;"/><text fill="#000000" font-family="sans-serif" font-size="13" lengthAdjust="spacing" textLength="200.1162" x="524.4561" y="213.8525">make HTTP request to TripAdvisor</text><line style="stroke:#181818;stroke-width:1.0;stroke-dasharray:2.0,2.0;" x1="517.4561" x2="559.4561" y1="263.4063" y2="263.4063"/><line style="stroke:#181818;stroke-width:1.0;stroke-dasharray:2.0,2.0;" x1="559.4561" x2="559.4561" y1="263.4063" y2="276.4063"/><line style="stroke:#181818;stroke-width:1.0;stroke-dasharray:2.0,2.0;" x1="518.4561" x2="559.4561" y1="276.4063" y2="276.4063"/><polygon fill="#181818" points="528.4561,272.4063,518.4561,276.4063,528.4561,280.4063" style="stroke:#181818;stroke-width:1.0;"/><text fill="#000000" font-family="sans-serif" font-size="13" lengthAdjust="spacing" textLength="200.1416" x="524.4561" y="258.1436">receive TripAdvisorHotelResponse</text><polygon fill="#181818" points="729.5977,303.6973,739.5977,307.6973,729.5977,311.6973" style="stroke:#181818;stroke-width:1.0;"/><line style="stroke:#181818;stroke-width:1.0;" x1="517.4561" x2="735.5977" y1="307.6973" y2="307.6973"/><text fill="#000000" font-family="sans-serif" font-size="13" lengthAdjust="spacing" textLength="94.6689" x="582.1924" y="302.4346">adapt(response)</text><polygon fill="#181818" points="528.4561,334.9883,518.4561,338.9883,528.4561,342.9883" style="stroke:#181818;stroke-width:1.0;"/><line style="stroke:#181818;stroke-width:1.0;stroke-dasharray:2.0,2.0;" x1="522.4561" x2="745.5977" y1="338.9883" y2="338.9883"/><text fill="#000000" font-family="sans-serif" font-size="13" lengthAdjust="spacing" textLength="70.0908" x="596.9814" y="333.7256">List&lt;Room&gt;</text><polygon fill="#181818" points="298.6245,366.2793,288.6245,370.2793,298.6245,374.2793" style="stroke:#181818;stroke-width:1.0;"/><line style="stroke:#181818;stroke-width:1.0;stroke-dasharray:2.0,2.0;" x1="292.6245" x2="511.4561" y1="370.2793" y2="370.2793"/><text fill="#000000" font-family="sans-serif" font-size="13" lengthAdjust="spacing" textLength="195.8315" x="302.1245" y="365.0166">CompletableFuture&lt;List&lt;Room&gt;&gt;</text><polygon fill="#181818" points="68.793,397.5703,58.793,401.5703,68.793,405.5703" style="stroke:#181818;stroke-width:1.0;"/><line style="stroke:#181818;stroke-width:1.0;stroke-dasharray:2.0,2.0;" x1="62.793" x2="281.6245" y1="401.5703" y2="401.5703"/><text fill="#000000" font-family="sans-serif" font-size="13" lengthAdjust="spacing" textLength="195.8315" x="72.293" y="396.3076">CompletableFuture&lt;List&lt;Room&gt;&gt;</text><path d="M287,414.5703 L287,458.5703 L507,458.5703 L507,424.5703 L497,414.5703 L287,414.5703 " fill="#FEFFDD" style="stroke:#181818;stroke-width:0.5;"/><path d="M497,414.5703 L497,424.5703 L507,424.5703 L497,414.5703 " fill="#FEFFDD" style="stroke:#181818;stroke-width:0.5;"/><text fill="#000000" font-family="sans-serif" font-size="13" lengthAdjust="spacing" textLength="199.4561" x="293" y="433.5986">Service adapter handles the async</text><text fill="#000000" font-family="sans-serif" font-size="13" lengthAdjust="spacing" textLength="188.5825" x="293" y="450.8896">communication with external API</text><path d="M751,469.1523 L751,513.1523 L962,513.1523 L962,479.1523 L952,469.1523 L751,469.1523 " fill="#FEFFDD" style="stroke:#181818;stroke-width:0.5;"/><path d="M952,469.1523 L952,479.1523 L962,479.1523 L952,469.1523 " fill="#FEFFDD" style="stroke:#181818;stroke-width:0.5;"/><text fill="#000000" font-family="sans-serif" font-size="13" lengthAdjust="spacing" textLength="190.0361" x="757" y="488.1807">Data adapter transforms external</text><text fill="#000000" font-family="sans-serif" font-size="13" lengthAdjust="spacing" textLength="163.3188" x="757" y="505.4717">response into domain model</text><!--SRC=[bLFBZjim3BphAmYVKg3zWI0846nRR80M2DBy02iniR1wk1BjRlw-LEBONY6NNcn97iuCHtH-iw73X1uo_UafQFf9EUE5TivU0cWAJ4db6SLNH_9CLdFldL9iMGwQdS5Ea710bbTOmsjaSl2Bqc0rmRxGe6ORGwEKB6A2vfHm8FSI0wVe7AK6C8EUjaeKsMhROM1eRdmZtIXsm-SFHx3PZAljzadzxh2_5M5d1VdjlLX5SNdDJBwkE2NRxSnWSqptueMgGSPdacgs3r-sbRarq3lfdkbOeiwyQWljkFbKKh43CbLLIbKj2g_uNyFP1dECqUVLXUBUV2wcA2zu12LPIwkF2ezl1A-dqm7INHGumgBDE_Y1JgJ93WHr3aVANGoP9kv566l0ibYb4RDmiq2fPNoJtW-RULCQsYf3JyicVtMkBz5tZXX_E_hUSvzeCvDzOBj5KkSfXFEr_GTPVKz1qe5aBor3FDTVOVeNSDHjCHX76RYLitmDMZ0wUjy7gx7yAV3NSYipCqwf3A-YOA38r6BBb02-ocwIuOGXdsFoUQ8IoEE2m0QP0HCzsW0-6dApnZy0]--></g></svg>