<svg xmlns="http://www.w3.org/2000/svg" xmlns:xlink="http://www.w3.org/1999/xlink" contentStyleType="text/css" height="521px" preserveAspectRatio="none" style="width:654px;height:521px;background:#FFFFFF;" version="1.1" viewBox="0 0 654 521" width="654px" zoomAndPan="magnify"><title>Facade Pattern: Transport Service Integration</title><defs/><g><text fill="#000000" font-family="sans-serif" font-size="14" font-weight="bold" lengthAdjust="spacing" textLength="304.1924" x="175.9094" y="30.1074">Facade Pattern: Transport Service Integration</text><rect fill="#ADD8E6" height="463.084" style="stroke:#181818;stroke-width:0.5;" width="300.3027" x="340.7085" y="45.6211"/><text fill="#000000" font-family="sans-serif" font-size="13" font-weight="bold" lengthAdjust="spacing" textLength="117.7744" x="431.9727" y="59.6494">Transport Services</text><rect fill="#FFFFFF" height="285.5898" style="stroke:#181818;stroke-width:1.0;" width="10" x="224.0654" y="156.5332"/><rect fill="#FFFFFF" height="31.291" style="stroke:#181818;stroke-width:1.0;" width="10" x="385.998" y="214.1152"/><rect fill="#FFFFFF" height="31.291" style="stroke:#181818;stroke-width:1.0;" width="10" x="484.6909" y="293.3281"/><rect fill="#FFFFFF" height="31.291" style="stroke:#181818;stroke-width:1.0;" width="10" x="584.5527" y="372.541"/><rect fill="none" height="240.2988" style="stroke:#000000;stroke-width:1.5;" width="488.249" x="158.7622" y="171.5332"/><line style="stroke:#181818;stroke-width:0.5;stroke-dasharray:5.0,5.0;" x1="25" x2="25" y1="123.2422" y2="514.7051"/><line style="stroke:#181818;stroke-width:0.5;stroke-dasharray:5.0,5.0;" x1="228.7622" x2="228.7622" y1="123.2422" y2="514.7051"/><line style="stroke:#181818;stroke-width:0.5;stroke-dasharray:5.0,5.0;" x1="390.7085" x2="390.7085" y1="123.2422" y2="514.7051"/><line style="stroke:#181818;stroke-width:0.5;stroke-dasharray:5.0,5.0;" x1="489.2876" x2="489.2876" y1="123.2422" y2="514.7051"/><line style="stroke:#181818;stroke-width:0.5;stroke-dasharray:5.0,5.0;" x1="589.0942" x2="589.0942" y1="123.2422" y2="514.7051"/><text fill="#000000" font-family="sans-serif" font-size="14" lengthAdjust="spacing" textLength="35.793" x="5" y="119.7285">Client</text><ellipse cx="25.8965" cy="53.1211" fill="#E2E2F0" rx="8" ry="8" style="stroke:#181818;stroke-width:0.5;"/><path d="M25.8965,61.1211 L25.8965,88.1211 M12.8965,69.1211 L38.8965,69.1211 M25.8965,88.1211 L12.8965,103.1211 M25.8965,88.1211 L38.8965,103.1211 " fill="none" style="stroke:#181818;stroke-width:0.5;"/><rect fill="#E2E2F0" height="51.2422" rx="2.5" ry="2.5" style="stroke:#181818;stroke-width:0.5;" width="120.6064" x="168.7622" y="71"/><text fill="#000000" font-family="sans-serif" font-size="14" font-style="italic" lengthAdjust="spacing" textLength="62.2686" x="197.9312" y="93.1074">&#171;Facade&#187;</text><text fill="#000000" font-family="sans-serif" font-size="14" lengthAdjust="spacing" textLength="106.6064" x="175.7622" y="111.7285">TransportFacade</text><rect fill="#E2E2F0" height="32.6211" rx="2.5" ry="2.5" style="stroke:#181818;stroke-width:0.5;" width="92.5791" x="344.7085" y="89.6211"/><text fill="#000000" font-family="sans-serif" font-size="14" lengthAdjust="spacing" textLength="78.5791" x="351.7085" y="111.7285">TrainService</text><rect fill="#E2E2F0" height="32.6211" rx="2.5" ry="2.5" style="stroke:#181818;stroke-width:0.5;" width="84.8066" x="447.2876" y="89.6211"/><text fill="#000000" font-family="sans-serif" font-size="14" lengthAdjust="spacing" textLength="70.8066" x="454.2876" y="111.7285">BusService</text><rect fill="#E2E2F0" height="32.6211" rx="2.5" ry="2.5" style="stroke:#181818;stroke-width:0.5;" width="94.917" x="542.0942" y="89.6211"/><text fill="#000000" font-family="sans-serif" font-size="14" lengthAdjust="spacing" textLength="80.917" x="549.0942" y="111.7285">FlightService</text><rect fill="#FFFFFF" height="285.5898" style="stroke:#181818;stroke-width:1.0;" width="10" x="224.0654" y="156.5332"/><rect fill="#FFFFFF" height="31.291" style="stroke:#181818;stroke-width:1.0;" width="10" x="385.998" y="214.1152"/><rect fill="#FFFFFF" height="31.291" style="stroke:#181818;stroke-width:1.0;" width="10" x="484.6909" y="293.3281"/><rect fill="#FFFFFF" height="31.291" style="stroke:#181818;stroke-width:1.0;" width="10" x="584.5527" y="372.541"/><polygon fill="#181818" points="212.0654,152.5332,222.0654,156.5332,212.0654,160.5332" style="stroke:#181818;stroke-width:1.0;"/><line style="stroke:#181818;stroke-width:1.0;" x1="25.8965" x2="218.0654" y1="156.5332" y2="156.5332"/><text fill="#000000" font-family="sans-serif" font-size="13" lengthAdjust="spacing" textLength="179.1689" x="35.3965" y="151.2705">searchTransport(from, to, type)</text><path d="M158.7622,171.5332 L218.9331,171.5332 L218.9331,180.8242 L208.9331,190.8242 L158.7622,190.8242 L158.7622,171.5332 " fill="#EEEEEE" style="stroke:#000000;stroke-width:1.5;"/><rect fill="none" height="240.2988" style="stroke:#000000;stroke-width:1.5;" width="488.249" x="158.7622" y="171.5332"/><text fill="#000000" font-family="sans-serif" font-size="13" font-weight="bold" lengthAdjust="spacing" textLength="15.1709" x="173.7622" y="186.5615">alt</text><text fill="#000000" font-family="sans-serif" font-size="11" font-weight="bold" lengthAdjust="spacing" textLength="83.1714" x="233.9331" y="185.4033">[type == "train"]</text><polygon fill="#181818" points="373.998,210.1152,383.998,214.1152,373.998,218.1152" style="stroke:#181818;stroke-width:1.0;"/><line style="stroke:#181818;stroke-width:1.0;" x1="234.0654" x2="379.998" y1="214.1152" y2="214.1152"/><text fill="#000000" font-family="sans-serif" font-size="13" lengthAdjust="spacing" textLength="132.9326" x="243.5654" y="208.8525">searchRoutes(from, to)</text><polygon fill="#181818" points="245.0654,241.4063,235.0654,245.4063,245.0654,249.4063" style="stroke:#181818;stroke-width:1.0;"/><line style="stroke:#181818;stroke-width:1.0;stroke-dasharray:2.0,2.0;" x1="239.0654" x2="389.998" y1="245.4063" y2="245.4063"/><text fill="#000000" font-family="sans-serif" font-size="13" lengthAdjust="spacing" textLength="41.9136" x="291.575" y="240.1436">Route[]</text><line style="stroke:#000000;stroke-width:1.0;stroke-dasharray:2.0,2.0;" x1="158.7622" x2="647.0112" y1="254.4063" y2="254.4063"/><text fill="#000000" font-family="sans-serif" font-size="11" font-weight="bold" lengthAdjust="spacing" textLength="78.8906" x="163.7622" y="266.2764">[type == "bus"]</text><polygon fill="#181818" points="472.6909,289.3281,482.6909,293.3281,472.6909,297.3281" style="stroke:#181818;stroke-width:1.0;"/><line style="stroke:#181818;stroke-width:1.0;" x1="234.0654" x2="478.6909" y1="293.3281" y2="293.3281"/><text fill="#000000" font-family="sans-serif" font-size="13" lengthAdjust="spacing" textLength="132.9326" x="292.9119" y="288.0654">searchRoutes(from, to)</text><polygon fill="#181818" points="245.0654,320.6191,235.0654,324.6191,245.0654,328.6191" style="stroke:#181818;stroke-width:1.0;"/><line style="stroke:#181818;stroke-width:1.0;stroke-dasharray:2.0,2.0;" x1="239.0654" x2="488.6909" y1="324.6191" y2="324.6191"/><text fill="#000000" font-family="sans-serif" font-size="13" lengthAdjust="spacing" textLength="41.9136" x="340.9214" y="319.3564">Route[]</text><line style="stroke:#000000;stroke-width:1.0;stroke-dasharray:2.0,2.0;" x1="158.7622" x2="647.0112" y1="333.6191" y2="333.6191"/><text fill="#000000" font-family="sans-serif" font-size="11" font-weight="bold" lengthAdjust="spacing" textLength="86.2114" x="163.7622" y="345.4893">[type == "flight"]</text><polygon fill="#181818" points="572.5527,368.541,582.5527,372.541,572.5527,376.541" style="stroke:#181818;stroke-width:1.0;"/><line style="stroke:#181818;stroke-width:1.0;" x1="234.0654" x2="578.5527" y1="372.541" y2="372.541"/><text fill="#000000" font-family="sans-serif" font-size="13" lengthAdjust="spacing" textLength="132.9326" x="342.8428" y="367.2783">searchRoutes(from, to)</text><polygon fill="#181818" points="245.0654,399.832,235.0654,403.832,245.0654,407.832" style="stroke:#181818;stroke-width:1.0;"/><line style="stroke:#181818;stroke-width:1.0;stroke-dasharray:2.0,2.0;" x1="239.0654" x2="588.5527" y1="403.832" y2="403.832"/><text fill="#000000" font-family="sans-serif" font-size="13" lengthAdjust="spacing" textLength="41.9136" x="390.8523" y="398.5693">Route[]</text><polygon fill="#181818" points="36.8965,438.123,26.8965,442.123,36.8965,446.123" style="stroke:#181818;stroke-width:1.0;"/><line style="stroke:#181818;stroke-width:1.0;stroke-dasharray:2.0,2.0;" x1="30.8965" x2="228.0654" y1="442.123" y2="442.123"/><text fill="#000000" font-family="sans-serif" font-size="13" lengthAdjust="spacing" textLength="41.9136" x="106.5242" y="436.8604">Route[]</text><path d="M234,455.123 L234,499.123 L473,499.123 L473,465.123 L463,455.123 L234,455.123 " fill="#FEFFDD" style="stroke:#181818;stroke-width:0.5;"/><path d="M463,455.123 L463,465.123 L473,465.123 L463,455.123 " fill="#FEFFDD" style="stroke:#181818;stroke-width:0.5;"/><text fill="#000000" font-family="sans-serif" font-size="13" lengthAdjust="spacing" textLength="218.2197" x="240" y="474.1514">Facade provides a simplified interface</text><text fill="#000000" font-family="sans-serif" font-size="13" lengthAdjust="spacing" textLength="207.3462" x="240" y="491.4424">to complex transport service system</text><!--SRC=[ZLF1IiGm4BtdAuPwKT0V45rGGH0KHBs9XvXETmVJf6QcY_ltJjDqMzVBBdIRlhnvxtMcuIyAdKss1SRl7eF39sIsQxpnj0xWC0WcmpDBTXxrFv6JllN628a2rRrrjaPujgByS0bloGRkOX9unRGbX_2WIkjaXMAeZB5EOeBgpfCwL60PN5uQjH5orDaWKErLHldCQqQdgwiHMwtCP_nPK2T3hk3aaTORkVKz6j3VeJI5GiswCW3_URSzBrcVFV_dtFl1PqbhCc8mrA3fZ1bV3YvM9VwbjjicjzcdFcrIRCz1ebwx3i-61j7M2fO2xPYNl0NNrr3bi5LEKlgXqXcSb5zYByXxsRFCtOlEBvjNSB58bYlVF_9kZGSbw1dd6DgDmn0A7HTXwgJUZx4Vw7_DnnuV-e_eSH7AbB90NXuJP1wjCPEjLeqJdgkM5MM28Uf3oZwncL20SdIw5BTK8uC5fhRpr13MGCFvK-f0b0WkwWx-3CCeNpkNuyKx5cpp5pVuc5y0]--></g></svg>