<svg xmlns="http://www.w3.org/2000/svg" xmlns:xlink="http://www.w3.org/1999/xlink" contentStyleType="text/css" height="555px" preserveAspectRatio="none" style="width:337px;height:555px;background:#FFFFFF;" version="1.1" viewBox="0 0 337 555" width="337.2px" zoomAndPan="magnify"><defs/><g><rect fill="none" height="434.5945" style="stroke:#000000;stroke-width:0.8999999999999999;" width="327.2162" x="6" y="60.3727"/><line style="stroke:#181818;stroke-width:0.3;stroke-dasharray:5.0,5.0;" x1="24" x2="24" y1="50.1727" y2="505.1672"/><line style="stroke:#181818;stroke-width:0.3;stroke-dasharray:5.0,5.0;" x1="85.3046" x2="85.3046" y1="50.1727" y2="505.1672"/><line style="stroke:#181818;stroke-width:0.3;stroke-dasharray:5.0,5.0;" x1="233.5629" x2="233.5629" y1="50.1727" y2="505.1672"/><line style="stroke:#181818;stroke-width:0.3;stroke-dasharray:5.0,5.0;" x1="300.3943" x2="300.3943" y1="50.1727" y2="505.1672"/><text fill="#000000" font-family="sans-serif" font-size="8.4" lengthAdjust="spacing" textLength="21.4758" x="12" y="48.0645">Client</text><ellipse cx="24.5379" cy="8.1" fill="#E2E2F0" rx="4.8" ry="4.8" style="stroke:#181818;stroke-width:0.3;"/><path d="M24.5379,12.9 L24.5379,29.1 M16.7379,17.7 L32.3379,17.7 M24.5379,29.1 L16.7379,38.1 M24.5379,29.1 L32.3379,38.1 " fill="none" style="stroke:#181818;stroke-width:0.3;"/><text fill="#000000" font-family="sans-serif" font-size="8.4" lengthAdjust="spacing" textLength="21.4758" x="12" y="513.6316">Client</text><ellipse cx="24.5379" cy="520.8398" fill="#E2E2F0" rx="4.8" ry="4.8" style="stroke:#181818;stroke-width:0.3;"/><path d="M24.5379,525.6398 L24.5379,541.8398 M16.7379,530.4398 L32.3379,530.4398 M24.5379,541.8398 L16.7379,550.8398 M24.5379,541.8398 L32.3379,550.8398 " fill="none" style="stroke:#181818;stroke-width:0.3;"/><rect fill="#E2E2F0" height="19.5727" rx="1.5" ry="1.5" style="stroke:#181818;stroke-width:0.3;" width="75.6287" x="47.5046" y="30"/><text fill="#000000" font-family="sans-serif" font-size="8.4" lengthAdjust="spacing" textLength="67.2287" x="51.7046" y="43.2645">ExternalController</text><rect fill="#E2E2F0" height="19.5727" rx="1.5" ry="1.5" style="stroke:#181818;stroke-width:0.3;" width="75.6287" x="47.5046" y="504.5672"/><text fill="#000000" font-family="sans-serif" font-size="8.4" lengthAdjust="spacing" textLength="67.2287" x="51.7046" y="517.8316">ExternalController</text><rect fill="#E2E2F0" height="19.5727" rx="1.5" ry="1.5" style="stroke:#181818;stroke-width:0.3;" width="68.6314" x="199.3629" y="30"/><text fill="#000000" font-family="sans-serif" font-size="8.4" lengthAdjust="spacing" textLength="60.2314" x="203.5629" y="43.2645">StrategyContext</text><rect fill="#E2E2F0" height="19.5727" rx="1.5" ry="1.5" style="stroke:#181818;stroke-width:0.3;" width="68.6314" x="199.3629" y="504.5672"/><text fill="#000000" font-family="sans-serif" font-size="8.4" lengthAdjust="spacing" textLength="60.2314" x="203.5629" y="517.8316">StrategyContext</text><rect fill="#E2E2F0" height="19.5727" rx="1.5" ry="1.5" style="stroke:#181818;stroke-width:0.3;" width="53.2219" x="273.9943" y="30"/><text fill="#000000" font-family="sans-serif" font-size="8.4" lengthAdjust="spacing" textLength="44.8219" x="278.1943" y="43.2645">APIStrategy</text><rect fill="#E2E2F0" height="19.5727" rx="1.5" ry="1.5" style="stroke:#181818;stroke-width:0.3;" width="53.2219" x="273.9943" y="504.5672"/><text fill="#000000" font-family="sans-serif" font-size="8.4" lengthAdjust="spacing" textLength="44.8219" x="278.1943" y="517.8316">APIStrategy</text><path d="M6,60.3727 L42.1025,60.3727 L42.1025,65.9473 L36.1025,71.9473 L6,71.9473 L6,60.3727 " fill="#EEEEEE" style="stroke:#000000;stroke-width:0.8999999999999999;"/><rect fill="none" height="434.5945" style="stroke:#000000;stroke-width:0.8999999999999999;" width="327.2162" x="6" y="60.3727"/><text fill="#000000" font-family="sans-serif" font-size="7.8" font-weight="bold" lengthAdjust="spacing" textLength="9.1025" x="15" y="69.3896">alt</text><text fill="#000000" font-family="sans-serif" font-size="6.6" font-weight="bold" lengthAdjust="spacing" textLength="51.3756" x="51.1025" y="68.6947">["API available"]</text><polygon fill="#181818" points="78.1189,83.5219,84.1189,85.9219,78.1189,88.3219,80.5189,85.9219" style="stroke:#181818;stroke-width:0.6;"/><line style="stroke:#181818;stroke-width:0.6;" x1="24.5379" x2="81.7189" y1="85.9219" y2="85.9219"/><text fill="#000000" font-family="sans-serif" font-size="7.8" lengthAdjust="spacing" textLength="32.514" x="28.7379" y="82.7643">getData()</text><polygon fill="#181818" points="226.4786,102.2965,232.4786,104.6965,226.4786,107.0965,228.8786,104.6965" style="stroke:#181818;stroke-width:0.6;"/><line style="stroke:#181818;stroke-width:0.6;" x1="85.3189" x2="230.0786" y1="104.6965" y2="104.6965"/><text fill="#000000" font-family="sans-serif" font-size="7.8" lengthAdjust="spacing" textLength="115.3204" x="89.5189" y="101.5389">setStrategy(new BookingAPICall)</text><polygon fill="#181818" points="91.9189,121.0711,85.9189,123.4711,91.9189,125.8711,89.5189,123.4711" style="stroke:#181818;stroke-width:0.6;"/><line style="stroke:#181818;stroke-width:0.6;stroke-dasharray:2.0,2.0;" x1="88.3189" x2="233.0786" y1="123.4711" y2="123.4711"/><text fill="#000000" font-family="sans-serif" font-size="7.8" lengthAdjust="spacing" textLength="19.5038" x="95.5189" y="120.3135">(void)</text><polygon fill="#181818" points="226.4786,139.8457,232.4786,142.2457,226.4786,144.6457,228.8786,142.2457" style="stroke:#181818;stroke-width:0.6;"/><line style="stroke:#181818;stroke-width:0.6;" x1="85.3189" x2="230.0786" y1="142.2457" y2="142.2457"/><text fill="#000000" font-family="sans-serif" font-size="7.8" lengthAdjust="spacing" textLength="32.514" x="89.5189" y="139.0881">getData()</text><polygon fill="#181818" points="293.4053,158.6203,299.4053,161.0203,293.4053,163.4203,295.8053,161.0203" style="stroke:#181818;stroke-width:0.6;"/><line style="stroke:#181818;stroke-width:0.6;" x1="233.6786" x2="297.0053" y1="161.0203" y2="161.0203"/><text fill="#000000" font-family="sans-serif" font-size="7.8" lengthAdjust="spacing" textLength="32.514" x="237.8786" y="157.8627">getData()</text><polygon fill="#181818" points="240.2786,177.3949,234.2786,179.7949,240.2786,182.1949,237.8786,179.7949" style="stroke:#181818;stroke-width:0.6;"/><line style="stroke:#181818;stroke-width:0.6;stroke-dasharray:2.0,2.0;" x1="236.6786" x2="300.0053" y1="179.7949" y2="179.7949"/><text fill="#000000" font-family="sans-serif" font-size="7.8" lengthAdjust="spacing" textLength="46.3811" x="243.8786" y="176.6373">(Data: String)</text><polygon fill="#181818" points="91.9189,196.1695,85.9189,198.5695,91.9189,200.9695,89.5189,198.5695" style="stroke:#181818;stroke-width:0.6;"/><line style="stroke:#181818;stroke-width:0.6;stroke-dasharray:2.0,2.0;" x1="88.3189" x2="233.0786" y1="198.5695" y2="198.5695"/><text fill="#000000" font-family="sans-serif" font-size="7.8" lengthAdjust="spacing" textLength="46.3811" x="95.5189" y="195.4119">(Data: String)</text><polygon fill="#181818" points="31.1379,214.9441,25.1379,217.3441,31.1379,219.7441,28.7379,217.3441" style="stroke:#181818;stroke-width:0.6;"/><line style="stroke:#181818;stroke-width:0.6;" x1="27.5379" x2="84.7189" y1="217.3441" y2="217.3441"/><text fill="#000000" font-family="sans-serif" font-size="7.8" lengthAdjust="spacing" textLength="46.3811" x="34.7379" y="214.1865">(Data: String)</text><line style="stroke:#000000;stroke-width:0.6;stroke-dasharray:2.0,2.0;" x1="6" x2="333.2162" y1="222.7441" y2="222.7441"/><text fill="#000000" font-family="sans-serif" font-size="6.6" font-weight="bold" lengthAdjust="spacing" textLength="63.4702" x="9" y="229.8662">["API not available"]</text><polygon fill="#181818" points="78.1189,243.6973,84.1189,246.0973,78.1189,248.4973,80.5189,246.0973" style="stroke:#181818;stroke-width:0.6;"/><line style="stroke:#181818;stroke-width:0.6;" x1="24.5379" x2="81.7189" y1="246.0973" y2="246.0973"/><text fill="#000000" font-family="sans-serif" font-size="7.8" lengthAdjust="spacing" textLength="32.514" x="28.7379" y="242.9396">getData()</text><polygon fill="#181818" points="226.4786,262.4719,232.4786,264.8719,226.4786,267.2719,228.8786,264.8719" style="stroke:#181818;stroke-width:0.6;"/><line style="stroke:#181818;stroke-width:0.6;" x1="85.3189" x2="230.0786" y1="264.8719" y2="264.8719"/><text fill="#000000" font-family="sans-serif" font-size="7.8" lengthAdjust="spacing" textLength="115.3204" x="89.5189" y="261.7143">setStrategy(new BookingAPICall)</text><polygon fill="#181818" points="91.9189,281.2465,85.9189,283.6465,91.9189,286.0465,89.5189,283.6465" style="stroke:#181818;stroke-width:0.6;"/><line style="stroke:#181818;stroke-width:0.6;stroke-dasharray:2.0,2.0;" x1="88.3189" x2="233.0786" y1="283.6465" y2="283.6465"/><text fill="#000000" font-family="sans-serif" font-size="7.8" lengthAdjust="spacing" textLength="19.5038" x="95.5189" y="280.4889">(void)</text><polygon fill="#181818" points="226.4786,300.0211,232.4786,302.4211,226.4786,304.8211,228.8786,302.4211" style="stroke:#181818;stroke-width:0.6;"/><line style="stroke:#181818;stroke-width:0.6;" x1="85.3189" x2="230.0786" y1="302.4211" y2="302.4211"/><text fill="#000000" font-family="sans-serif" font-size="7.8" lengthAdjust="spacing" textLength="32.514" x="89.5189" y="299.2635">getData()</text><polygon fill="#181818" points="293.4053,318.7957,299.4053,321.1957,293.4053,323.5957,295.8053,321.1957" style="stroke:#181818;stroke-width:0.6;"/><line style="stroke:#181818;stroke-width:0.6;" x1="233.6786" x2="297.0053" y1="321.1957" y2="321.1957"/><text fill="#000000" font-family="sans-serif" font-size="7.8" lengthAdjust="spacing" textLength="32.514" x="237.8786" y="318.0381">getData()</text><polygon fill="#181818" points="240.2786,337.5703,234.2786,339.9703,240.2786,342.3703,237.8786,339.9703" style="stroke:#181818;stroke-width:0.6;"/><line style="stroke:#181818;stroke-width:0.6;stroke-dasharray:2.0,2.0;" x1="236.6786" x2="300.0053" y1="339.9703" y2="339.9703"/><text fill="#000000" font-family="sans-serif" font-size="7.8" lengthAdjust="spacing" textLength="21.6633" x="243.8786" y="336.8127">(error)</text><polygon fill="#181818" points="91.9189,356.3449,85.9189,358.7449,91.9189,361.1449,89.5189,358.7449" style="stroke:#181818;stroke-width:0.6;"/><line style="stroke:#181818;stroke-width:0.6;stroke-dasharray:2.0,2.0;" x1="88.3189" x2="233.0786" y1="358.7449" y2="358.7449"/><text fill="#000000" font-family="sans-serif" font-size="7.8" lengthAdjust="spacing" textLength="21.6633" x="95.5189" y="355.5873">(error)</text><polygon fill="#181818" points="226.4786,375.1195,232.4786,377.5195,226.4786,379.9195,228.8786,377.5195" style="stroke:#181818;stroke-width:0.6;"/><line style="stroke:#181818;stroke-width:0.6;" x1="85.3189" x2="230.0786" y1="377.5195" y2="377.5195"/><text fill="#000000" font-family="sans-serif" font-size="7.8" lengthAdjust="spacing" textLength="133.9597" x="89.5189" y="374.3619">setStrategy(new BookingErrorHandler)</text><polygon fill="#181818" points="91.9189,393.8941,85.9189,396.2941,91.9189,398.6941,89.5189,396.2941" style="stroke:#181818;stroke-width:0.6;"/><line style="stroke:#181818;stroke-width:0.6;stroke-dasharray:2.0,2.0;" x1="88.3189" x2="233.0786" y1="396.2941" y2="396.2941"/><text fill="#000000" font-family="sans-serif" font-size="7.8" lengthAdjust="spacing" textLength="19.5038" x="95.5189" y="393.1365">(void)</text><polygon fill="#181818" points="226.4786,412.6688,232.4786,415.0687,226.4786,417.4688,228.8786,415.0687" style="stroke:#181818;stroke-width:0.6;"/><line style="stroke:#181818;stroke-width:0.6;" x1="85.3189" x2="230.0786" y1="415.0687" y2="415.0687"/><text fill="#000000" font-family="sans-serif" font-size="7.8" lengthAdjust="spacing" textLength="32.514" x="89.5189" y="411.9111">getData()</text><polygon fill="#181818" points="293.4053,431.4434,299.4053,433.8434,293.4053,436.2434,295.8053,433.8434" style="stroke:#181818;stroke-width:0.6;"/><line style="stroke:#181818;stroke-width:0.6;" x1="233.6786" x2="297.0053" y1="433.8434" y2="433.8434"/><text fill="#000000" font-family="sans-serif" font-size="7.8" lengthAdjust="spacing" textLength="32.514" x="237.8786" y="430.6857">getData()</text><polygon fill="#181818" points="240.2786,450.218,234.2786,452.618,240.2786,455.018,237.8786,452.618" style="stroke:#181818;stroke-width:0.6;"/><line style="stroke:#181818;stroke-width:0.6;stroke-dasharray:2.0,2.0;" x1="236.6786" x2="300.0053" y1="452.618" y2="452.618"/><text fill="#000000" font-family="sans-serif" font-size="7.8" lengthAdjust="spacing" textLength="46.3811" x="243.8786" y="449.4604">(Data: String)</text><polygon fill="#181818" points="91.9189,468.9926,85.9189,471.3926,91.9189,473.7926,89.5189,471.3926" style="stroke:#181818;stroke-width:0.6;"/><line style="stroke:#181818;stroke-width:0.6;stroke-dasharray:2.0,2.0;" x1="88.3189" x2="233.0786" y1="471.3926" y2="471.3926"/><text fill="#000000" font-family="sans-serif" font-size="7.8" lengthAdjust="spacing" textLength="46.3811" x="95.5189" y="468.235">(Data: String)</text><polygon fill="#181818" points="31.1379,487.7672,25.1379,490.1672,31.1379,492.5672,28.7379,490.1672" style="stroke:#181818;stroke-width:0.6;"/><line style="stroke:#181818;stroke-width:0.6;" x1="27.5379" x2="84.7189" y1="490.1672" y2="490.1672"/><text fill="#000000" font-family="sans-serif" font-size="7.8" lengthAdjust="spacing" textLength="46.3811" x="34.7379" y="487.0096">(Data: String)</text><!--SRC=[xL9B2eD03DtFAO8hNNW15q9hXNPNw0dI6aGQPc0Crjw-CwYqLWjAjsRvafVtyi6R60iPLwH5AMI1O7S-0JPOCLwP0jNb84uXRuMiHiwC5ckOoK829Sa11SD8pQGTwI8MXSgdHwaLnwX91Z3Kz82zCVTAbqusG-P8VJFYNz9XOwfYkUxRwKGX1QS-eAFIJpoURHlwoiGdt11ht8zvyrFqovzKko2kgJkMDh8TRCN1o5fZrzZk2N_kA_TTZgWBHzo-VCcNaovU]--></g></svg>