<svg xmlns="http://www.w3.org/2000/svg" xmlns:xlink="http://www.w3.org/1999/xlink" contentStyleType="text/css" height="556px" preserveAspectRatio="none" style="width:1153px;height:556px;background:#FFFFFF;" version="1.1" viewBox="0 0 1153 556" width="1153px" zoomAndPan="magnify"><title>Class Diagram: Adapter Pattern voor Externe Services</title><defs/><g><text fill="#000000" font-family="sans-serif" font-size="14" font-weight="bold" lengthAdjust="spacing" textLength="361.8125" x="389.019" y="25.1074">Class Diagram: Adapter Pattern voor Externe Services</text><!--class IExternalService--><g id="elem_IExternalService"><rect codeLine="11" fill="#FFFFFF" height="66.6211" id="IExternalService" rx="2.5" ry="2.5" style="stroke:#000000;stroke-width:0.5;" width="279.6816" x="302.5" y="210.6211"/><ellipse cx="387.1255" cy="226.6211" fill="#B4A7E5" rx="11" ry="11" style="stroke:#181818;stroke-width:1.0;"/><path d="M388.0786,223.2617 L388.0786,229.918 L389.7974,229.918 Q390.4067,229.918 390.6724,230.1523 Q390.938,230.3867 390.938,230.7773 Q390.938,231.1523 390.6724,231.3867 Q390.4067,231.6211 389.7974,231.6211 L384.6567,231.6211 Q384.0474,231.6211 383.7817,231.3867 Q383.5161,231.1523 383.5161,230.7617 Q383.5161,230.3867 383.7817,230.1523 Q384.0474,229.918 384.6567,229.918 L386.3755,229.918 L386.3755,223.2617 L384.6567,223.2617 Q384.0474,223.2617 383.7817,223.0273 Q383.5161,222.793 383.5161,222.4023 Q383.5161,222.0273 383.7817,221.793 Q384.0474,221.5586 384.6567,221.5586 L389.7974,221.5586 Q390.4067,221.5586 390.6724,221.793 Q390.938,222.0273 390.938,222.4023 Q390.938,222.793 390.6724,223.0273 Q390.4067,223.2617 389.7974,223.2617 L388.0786,223.2617 Z " fill="#000000"/><text fill="#000000" font-family="sans-serif" font-size="14" font-style="italic" lengthAdjust="spacing" textLength="101.9307" x="407.6255" y="232.418">IExternalService</text><line style="stroke:#000000;stroke-width:0.5;" x1="303.5" x2="581.1816" y1="242.6211" y2="242.6211"/><line style="stroke:#000000;stroke-width:0.5;" x1="303.5" x2="581.1816" y1="250.6211" y2="250.6211"/><ellipse cx="313.5" cy="265.4316" fill="#84BE84" rx="3" ry="3" style="stroke:#038048;stroke-width:1.0;"/><text fill="#000000" font-family="sans-serif" font-size="14" lengthAdjust="spacing" textLength="253.6816" x="322.5" y="269.7285">executeRequest(request: Object): Object</text></g><!--class TransportServiceAdapter--><g id="elem_TransportServiceAdapter"><rect codeLine="16" fill="#FFFFFF" height="85.2422" id="TransportServiceAdapter" rx="2.5" ry="2.5" style="stroke:#000000;stroke-width:0.5;" width="279.6816" x="22.5" y="337.6211"/><ellipse cx="80.2773" cy="353.6211" fill="#ADD1B2" rx="11" ry="11" style="stroke:#181818;stroke-width:1.0;"/><path d="M83.043,349.4961 Q83.1992,349.2773 83.3867,349.168 Q83.5742,349.0586 83.793,349.0586 Q84.168,349.0586 84.4023,349.3242 Q84.6367,349.5742 84.6367,350.1836 L84.6367,351.6367 Q84.6367,352.2461 84.4023,352.5117 Q84.168,352.7773 83.793,352.7773 Q83.4492,352.7773 83.2461,352.5742 Q83.043,352.3867 82.9336,351.8711 Q82.8867,351.5117 82.6992,351.3242 Q82.3711,350.9492 81.7617,350.7305 Q81.1523,350.5117 80.5273,350.5117 Q79.7617,350.5117 79.1211,350.8398 Q78.4961,351.168 77.9961,351.918 Q77.5117,352.668 77.5117,353.6992 L77.5117,354.793 Q77.5117,356.0273 78.4023,356.8555 Q79.293,357.668 80.8867,357.668 Q81.8242,357.668 82.4805,357.418 Q82.8711,357.2617 83.293,356.8242 Q83.5586,356.5586 83.6992,356.4805 Q83.8555,356.4023 84.0586,356.4023 Q84.3867,356.4023 84.6367,356.668 Q84.9023,356.918 84.9023,357.2617 Q84.9023,357.6055 84.5586,358.0117 Q84.0586,358.5898 83.2617,358.918 Q82.1836,359.3711 80.8867,359.3711 Q79.3711,359.3711 78.168,358.7461 Q77.1836,358.2461 76.4961,357.1836 Q75.8086,356.1055 75.8086,354.8242 L75.8086,353.668 Q75.8086,352.3398 76.418,351.1992 Q77.043,350.043 78.1367,349.4336 Q79.2305,348.8086 80.4648,348.8086 Q81.1992,348.8086 81.8398,348.9805 Q82.4961,349.1367 83.043,349.4961 Z " fill="#000000"/><text fill="#000000" font-family="sans-serif" font-size="14" lengthAdjust="spacing" textLength="155.627" x="100.7773" y="359.418">TransportServiceAdapter</text><line style="stroke:#000000;stroke-width:0.5;" x1="23.5" x2="301.1816" y1="369.6211" y2="369.6211"/><rect fill="none" height="6" style="stroke:#C82930;stroke-width:1.0;" width="6" x="30.5" y="381.4316"/><text fill="#000000" font-family="sans-serif" font-size="14" lengthAdjust="spacing" textLength="192.1855" x="42.5" y="388.7285">transportService: TransportAPI</text><line style="stroke:#000000;stroke-width:0.5;" x1="23.5" x2="301.1816" y1="396.2422" y2="396.2422"/><ellipse cx="33.5" cy="411.0527" fill="#84BE84" rx="3" ry="3" style="stroke:#038048;stroke-width:1.0;"/><text fill="#000000" font-family="sans-serif" font-size="14" lengthAdjust="spacing" textLength="253.6816" x="42.5" y="415.3496">executeRequest(request: Object): Object</text></g><!--class HotelServiceAdapter--><g id="elem_HotelServiceAdapter"><rect codeLine="21" fill="#FFFFFF" height="85.2422" id="HotelServiceAdapter" rx="2.5" ry="2.5" style="stroke:#000000;stroke-width:0.5;" width="279.6816" x="582.5" y="337.6211"/><ellipse cx="653.8911" cy="353.6211" fill="#ADD1B2" rx="11" ry="11" style="stroke:#181818;stroke-width:1.0;"/><path d="M656.6567,349.4961 Q656.813,349.2773 657.0005,349.168 Q657.188,349.0586 657.4067,349.0586 Q657.7817,349.0586 658.0161,349.3242 Q658.2505,349.5742 658.2505,350.1836 L658.2505,351.6367 Q658.2505,352.2461 658.0161,352.5117 Q657.7817,352.7773 657.4067,352.7773 Q657.063,352.7773 656.8599,352.5742 Q656.6567,352.3867 656.5474,351.8711 Q656.5005,351.5117 656.313,351.3242 Q655.9849,350.9492 655.3755,350.7305 Q654.7661,350.5117 654.1411,350.5117 Q653.3755,350.5117 652.7349,350.8398 Q652.1099,351.168 651.6099,351.918 Q651.1255,352.668 651.1255,353.6992 L651.1255,354.793 Q651.1255,356.0273 652.0161,356.8555 Q652.9067,357.668 654.5005,357.668 Q655.438,357.668 656.0942,357.418 Q656.4849,357.2617 656.9067,356.8242 Q657.1724,356.5586 657.313,356.4805 Q657.4692,356.4023 657.6724,356.4023 Q658.0005,356.4023 658.2505,356.668 Q658.5161,356.918 658.5161,357.2617 Q658.5161,357.6055 658.1724,358.0117 Q657.6724,358.5898 656.8755,358.918 Q655.7974,359.3711 654.5005,359.3711 Q652.9849,359.3711 651.7817,358.7461 Q650.7974,358.2461 650.1099,357.1836 Q649.4224,356.1055 649.4224,354.8242 L649.4224,353.668 Q649.4224,352.3398 650.0317,351.1992 Q650.6567,350.043 651.7505,349.4336 Q652.8442,348.8086 654.0786,348.8086 Q654.813,348.8086 655.4536,348.9805 Q656.1099,349.1367 656.6567,349.4961 Z " fill="#000000"/><text fill="#000000" font-family="sans-serif" font-size="14" lengthAdjust="spacing" textLength="128.3994" x="674.3911" y="359.418">HotelServiceAdapter</text><line style="stroke:#000000;stroke-width:0.5;" x1="583.5" x2="861.1816" y1="369.6211" y2="369.6211"/><rect fill="none" height="6" style="stroke:#C82930;stroke-width:1.0;" width="6" x="590.5" y="381.4316"/><text fill="#000000" font-family="sans-serif" font-size="14" lengthAdjust="spacing" textLength="140.0684" x="602.5" y="388.7285">hotelService: HotelAPI</text><line style="stroke:#000000;stroke-width:0.5;" x1="583.5" x2="861.1816" y1="396.2422" y2="396.2422"/><ellipse cx="593.5" cy="411.0527" fill="#84BE84" rx="3" ry="3" style="stroke:#038048;stroke-width:1.0;"/><text fill="#000000" font-family="sans-serif" font-size="14" lengthAdjust="spacing" textLength="253.6816" x="602.5" y="415.3496">executeRequest(request: Object): Object</text></g><!--class TransportAPI--><g id="elem_TransportAPI"><rect codeLine="27" fill="#FFFFFF" height="66.6211" id="TransportAPI" rx="2.5" ry="2.5" style="stroke:#000000;stroke-width:0.5;" width="310.7783" x="7" y="482.6211"/><ellipse cx="116.9014" cy="498.6211" fill="#ADD1B2" rx="11" ry="11" style="stroke:#181818;stroke-width:1.0;"/><path d="M119.667,494.4961 Q119.8232,494.2773 120.0107,494.168 Q120.1982,494.0586 120.417,494.0586 Q120.792,494.0586 121.0264,494.3242 Q121.2607,494.5742 121.2607,495.1836 L121.2607,496.6367 Q121.2607,497.2461 121.0264,497.5117 Q120.792,497.7773 120.417,497.7773 Q120.0732,497.7773 119.8701,497.5742 Q119.667,497.3867 119.5576,496.8711 Q119.5107,496.5117 119.3232,496.3242 Q118.9951,495.9492 118.3857,495.7305 Q117.7764,495.5117 117.1514,495.5117 Q116.3857,495.5117 115.7451,495.8398 Q115.1201,496.168 114.6201,496.918 Q114.1357,497.668 114.1357,498.6992 L114.1357,499.793 Q114.1357,501.0273 115.0264,501.8555 Q115.917,502.668 117.5107,502.668 Q118.4482,502.668 119.1045,502.418 Q119.4951,502.2617 119.917,501.8242 Q120.1826,501.5586 120.3232,501.4805 Q120.4795,501.4023 120.6826,501.4023 Q121.0107,501.4023 121.2607,501.668 Q121.5264,501.918 121.5264,502.2617 Q121.5264,502.6055 121.1826,503.0117 Q120.6826,503.5898 119.8857,503.918 Q118.8076,504.3711 117.5107,504.3711 Q115.9951,504.3711 114.792,503.7461 Q113.8076,503.2461 113.1201,502.1836 Q112.4326,501.1055 112.4326,499.8242 L112.4326,498.668 Q112.4326,497.3398 113.042,496.1992 Q113.667,495.043 114.7607,494.4336 Q115.8545,493.8086 117.0889,493.8086 Q117.8232,493.8086 118.4639,493.9805 Q119.1201,494.1367 119.667,494.4961 Z " fill="#000000"/><text fill="#000000" font-family="sans-serif" font-size="14" lengthAdjust="spacing" textLength="82.4756" x="137.4014" y="504.418">TransportAPI</text><line style="stroke:#000000;stroke-width:0.5;" x1="8" x2="316.7783" y1="514.6211" y2="514.6211"/><line style="stroke:#000000;stroke-width:0.5;" x1="8" x2="316.7783" y1="522.6211" y2="522.6211"/><ellipse cx="18" cy="537.4316" fill="#84BE84" rx="3" ry="3" style="stroke:#038048;stroke-width:1.0;"/><text fill="#000000" font-family="sans-serif" font-size="14" lengthAdjust="spacing" textLength="284.7783" x="27" y="541.7285">searchRoutes(from: String, to: String): Route[]</text></g><!--class HotelAPI--><g id="elem_HotelAPI"><rect codeLine="31" fill="#FFFFFF" height="66.6211" id="HotelAPI" rx="2.5" ry="2.5" style="stroke:#000000;stroke-width:0.5;" width="368.3848" x="538.5" y="482.6211"/><ellipse cx="690.8184" cy="498.6211" fill="#ADD1B2" rx="11" ry="11" style="stroke:#181818;stroke-width:1.0;"/><path d="M693.584,494.4961 Q693.7402,494.2773 693.9277,494.168 Q694.1152,494.0586 694.334,494.0586 Q694.709,494.0586 694.9434,494.3242 Q695.1777,494.5742 695.1777,495.1836 L695.1777,496.6367 Q695.1777,497.2461 694.9434,497.5117 Q694.709,497.7773 694.334,497.7773 Q693.9902,497.7773 693.7871,497.5742 Q693.584,497.3867 693.4746,496.8711 Q693.4277,496.5117 693.2402,496.3242 Q692.9121,495.9492 692.3027,495.7305 Q691.6934,495.5117 691.0684,495.5117 Q690.3027,495.5117 689.6621,495.8398 Q689.0371,496.168 688.5371,496.918 Q688.0527,497.668 688.0527,498.6992 L688.0527,499.793 Q688.0527,501.0273 688.9434,501.8555 Q689.834,502.668 691.4277,502.668 Q692.3652,502.668 693.0215,502.418 Q693.4121,502.2617 693.834,501.8242 Q694.0996,501.5586 694.2402,501.4805 Q694.3965,501.4023 694.5996,501.4023 Q694.9277,501.4023 695.1777,501.668 Q695.4434,501.918 695.4434,502.2617 Q695.4434,502.6055 695.0996,503.0117 Q694.5996,503.5898 693.8027,503.918 Q692.7246,504.3711 691.4277,504.3711 Q689.9121,504.3711 688.709,503.7461 Q687.7246,503.2461 687.0371,502.1836 Q686.3496,501.1055 686.3496,499.8242 L686.3496,498.668 Q686.3496,497.3398 686.959,496.1992 Q687.584,495.043 688.6777,494.4336 Q689.7715,493.8086 691.0059,493.8086 Q691.7402,493.8086 692.3809,493.9805 Q693.0371,494.1367 693.584,494.4961 Z " fill="#000000"/><text fill="#000000" font-family="sans-serif" font-size="14" lengthAdjust="spacing" textLength="55.248" x="711.3184" y="504.418">HotelAPI</text><line style="stroke:#000000;stroke-width:0.5;" x1="539.5" x2="905.8848" y1="514.6211" y2="514.6211"/><line style="stroke:#000000;stroke-width:0.5;" x1="539.5" x2="905.8848" y1="522.6211" y2="522.6211"/><ellipse cx="549.5" cy="537.4316" fill="#84BE84" rx="3" ry="3" style="stroke:#038048;stroke-width:1.0;"/><text fill="#000000" font-family="sans-serif" font-size="14" lengthAdjust="spacing" textLength="342.3848" x="558.5" y="541.7285">findRooms(location: String, dates: DateRange): Room[]</text></g><!--class ServiceClient--><g id="elem_ServiceClient"><rect codeLine="36" fill="#FFFFFF" height="103.8633" id="ServiceClient" rx="2.5" ry="2.5" style="stroke:#000000;stroke-width:0.5;" width="434.5156" x="510" y="46.6211"/><ellipse cx="681.77" cy="62.6211" fill="#ADD1B2" rx="11" ry="11" style="stroke:#181818;stroke-width:1.0;"/><path d="M684.5356,58.4961 Q684.6919,58.2773 684.8794,58.168 Q685.0669,58.0586 685.2856,58.0586 Q685.6606,58.0586 685.895,58.3242 Q686.1294,58.5742 686.1294,59.1836 L686.1294,60.6367 Q686.1294,61.2461 685.895,61.5117 Q685.6606,61.7773 685.2856,61.7773 Q684.9419,61.7773 684.7388,61.5742 Q684.5356,61.3867 684.4263,60.8711 Q684.3794,60.5117 684.1919,60.3242 Q683.8638,59.9492 683.2544,59.7305 Q682.645,59.5117 682.02,59.5117 Q681.2544,59.5117 680.6138,59.8398 Q679.9888,60.168 679.4888,60.918 Q679.0044,61.668 679.0044,62.6992 L679.0044,63.793 Q679.0044,65.0273 679.895,65.8555 Q680.7856,66.668 682.3794,66.668 Q683.3169,66.668 683.9731,66.418 Q684.3638,66.2617 684.7856,65.8242 Q685.0513,65.5586 685.1919,65.4805 Q685.3481,65.4023 685.5513,65.4023 Q685.8794,65.4023 686.1294,65.668 Q686.395,65.918 686.395,66.2617 Q686.395,66.6055 686.0513,67.0117 Q685.5513,67.5898 684.7544,67.918 Q683.6763,68.3711 682.3794,68.3711 Q680.8638,68.3711 679.6606,67.7461 Q678.6763,67.2461 677.9888,66.1836 Q677.3013,65.1055 677.3013,63.8242 L677.3013,62.668 Q677.3013,61.3398 677.9106,60.1992 Q678.5356,59.043 679.6294,58.4336 Q680.7231,57.8086 681.9575,57.8086 Q682.6919,57.8086 683.3325,57.9805 Q683.9888,58.1367 684.5356,58.4961 Z " fill="#000000"/><text fill="#000000" font-family="sans-serif" font-size="14" lengthAdjust="spacing" textLength="82.4756" x="702.27" y="68.418">ServiceClient</text><line style="stroke:#000000;stroke-width:0.5;" x1="511" x2="943.5156" y1="78.6211" y2="78.6211"/><rect fill="none" height="6" style="stroke:#C82930;stroke-width:1.0;" width="6" x="518" y="90.4316"/><text fill="#000000" font-family="sans-serif" font-size="14" lengthAdjust="spacing" textLength="248.9922" x="530" y="97.7285">services: Map&lt;String, IExternalService&gt;</text><line style="stroke:#000000;stroke-width:0.5;" x1="511" x2="943.5156" y1="105.2422" y2="105.2422"/><ellipse cx="521" cy="120.0527" fill="#84BE84" rx="3" ry="3" style="stroke:#038048;stroke-width:1.0;"/><text fill="#000000" font-family="sans-serif" font-size="14" lengthAdjust="spacing" textLength="408.5156" x="530" y="124.3496">executeServiceRequest(serviceId: String, request: Object): Object</text><ellipse cx="521" cy="138.6738" fill="#84BE84" rx="3" ry="3" style="stroke:#038048;stroke-width:1.0;"/><text fill="#000000" font-family="sans-serif" font-size="14" lengthAdjust="spacing" textLength="375.0332" x="530" y="142.9707">addService(serviceId: String, service: IExternalService): void</text></g><g id="elem_GMN13"><path d="M618,221.6211 L618,240.1211 L582.56,244.1211 L618,248.1211 L618,266.2031 A0,0 0 0 0 618,266.2031 L842.7788,266.2031 A0,0 0 0 0 842.7788,266.2031 L842.7788,231.6211 L832.7788,221.6211 L618,221.6211 A0,0 0 0 0 618,221.6211 " fill="#FEFFDD" style="stroke:#181818;stroke-width:0.5;"/><path d="M832.7788,221.6211 L832.7788,231.6211 L842.7788,231.6211 L832.7788,221.6211 " fill="#FEFFDD" style="stroke:#181818;stroke-width:0.5;"/><text fill="#000000" font-family="sans-serif" font-size="13" lengthAdjust="spacing" textLength="203.7788" x="624" y="240.6494">Gemeenschappelijke interface voor</text><text fill="#000000" font-family="sans-serif" font-size="13" lengthAdjust="spacing" textLength="118.498" x="624" y="257.9404">alle externe services</text></g><g id="elem_GMN16"><path d="M337.5,357.6211 L337.5,376.1211 L302.77,380.1211 L337.5,384.1211 L337.5,402.2031 A0,0 0 0 0 337.5,402.2031 L547.1143,402.2031 A0,0 0 0 0 547.1143,402.2031 L547.1143,367.6211 L537.1143,357.6211 L337.5,357.6211 A0,0 0 0 0 337.5,357.6211 " fill="#FEFFDD" style="stroke:#181818;stroke-width:0.5;"/><path d="M537.1143,357.6211 L537.1143,367.6211 L547.1143,367.6211 L537.1143,357.6211 " fill="#FEFFDD" style="stroke:#181818;stroke-width:0.5;"/><text fill="#000000" font-family="sans-serif" font-size="13" lengthAdjust="spacing" textLength="188.6143" x="343.5" y="376.6494">Vertaalt generieke requests naar</text><text fill="#000000" font-family="sans-serif" font-size="13" lengthAdjust="spacing" textLength="143.0571" x="343.5" y="393.9404">transport-specifieke calls</text></g><g id="elem_GMN19"><path d="M897.5,357.6211 L897.5,376.1211 L862.77,380.1211 L897.5,384.1211 L897.5,402.2031 A0,0 0 0 0 897.5,402.2031 L1107.1143,402.2031 A0,0 0 0 0 1107.1143,402.2031 L1107.1143,367.6211 L1097.1143,357.6211 L897.5,357.6211 A0,0 0 0 0 897.5,357.6211 " fill="#FEFFDD" style="stroke:#181818;stroke-width:0.5;"/><path d="M1097.1143,357.6211 L1097.1143,367.6211 L1107.1143,367.6211 L1097.1143,357.6211 " fill="#FEFFDD" style="stroke:#181818;stroke-width:0.5;"/><text fill="#000000" font-family="sans-serif" font-size="13" lengthAdjust="spacing" textLength="188.6143" x="903.5" y="376.6494">Vertaalt generieke requests naar</text><text fill="#000000" font-family="sans-serif" font-size="13" lengthAdjust="spacing" textLength="119.9453" x="903.5" y="393.9404">hotel-specifieke calls</text></g><g id="elem_GMN22"><path d="M878,221.6211 L878,266.2031 A0,0 0 0 0 878,266.2031 L1146.8506,266.2031 A0,0 0 0 0 1146.8506,266.2031 L1146.8506,231.6211 L1136.8506,221.6211 L973.65,221.6211 L829.18,150.8211 L965.65,221.6211 L878,221.6211 A0,0 0 0 0 878,221.6211 " fill="#FEFFDD" style="stroke:#181818;stroke-width:0.5;"/><path d="M1136.8506,221.6211 L1136.8506,231.6211 L1146.8506,231.6211 L1136.8506,221.6211 " fill="#FEFFDD" style="stroke:#181818;stroke-width:0.5;"/><text fill="#000000" font-family="sans-serif" font-size="13" lengthAdjust="spacing" textLength="195.7935" x="884" y="240.6494">Werkt alleen met IExternalService</text><text fill="#000000" font-family="sans-serif" font-size="13" lengthAdjust="spacing" textLength="247.8506" x="884" y="257.9404">Onafhankelijk van concrete implementaties</text></g><!--reverse link IExternalService to TransportServiceAdapter--><g id="link_IExternalService_TransportServiceAdapter"><path d="M358.1238,285.5019 C320.4938,303.5119 289.58,318.3011 249.33,337.5711 " fill="none" id="IExternalService-backto-TransportServiceAdapter" style="stroke:#000000;stroke-width:1.0;stroke-dasharray:7.0,7.0;"/><polygon fill="none" points="374.36,277.7311,355.5335,280.0898,360.714,290.9139,374.36,277.7311" style="stroke:#000000;stroke-width:1.0;"/></g><!--reverse link IExternalService to HotelServiceAdapter--><g id="link_IExternalService_HotelServiceAdapter"><path d="M526.8762,285.5019 C564.5062,303.5119 595.42,318.3011 635.67,337.5711 " fill="none" id="IExternalService-backto-HotelServiceAdapter" style="stroke:#000000;stroke-width:1.0;stroke-dasharray:7.0,7.0;"/><polygon fill="none" points="510.64,277.7311,524.286,290.9139,529.4665,280.0898,510.64,277.7311" style="stroke:#000000;stroke-width:1.0;"/></g><!--link ServiceClient to IExternalService--><g id="link_ServiceClient_IExternalService"><path codeLine="43" d="M615.1016,156.217 C575.6116,176.097 547.6392,190.1831 512.6192,207.8131 " fill="none" id="ServiceClient-IExternalService" style="stroke:#000000;stroke-width:1.0;"/><polygon fill="none" points="625.82,150.8211,618.6622,149.9462,615.1016,156.217,622.2594,157.0918,625.82,150.8211" style="stroke:#000000;stroke-width:1.0;"/><polygon fill="#000000" points="507.26,210.5111,517.0974,210.0369,511.726,208.2628,513.5002,202.8914,507.26,210.5111" style="stroke:#000000;stroke-width:1.0;"/></g><!--link TransportServiceAdapter to TransportAPI--><g id="link_TransportServiceAdapter_TransportAPI"><path codeLine="44" d="M162.5,422.7811 C162.5,441.9911 162.5,458.4611 162.5,476.4211 " fill="none" id="TransportServiceAdapter-to-TransportAPI" style="stroke:#000000;stroke-width:1.0;"/><polygon fill="#000000" points="162.5,482.4211,166.5,473.4211,162.5,477.4211,158.5,473.4211,162.5,482.4211" style="stroke:#000000;stroke-width:1.0;"/></g><!--link HotelServiceAdapter to HotelAPI--><g id="link_HotelServiceAdapter_HotelAPI"><path codeLine="45" d="M722.5,422.7811 C722.5,441.9911 722.5,458.4611 722.5,476.4211 " fill="none" id="HotelServiceAdapter-to-HotelAPI" style="stroke:#000000;stroke-width:1.0;"/><polygon fill="#000000" points="722.5,482.4211,726.5,473.4211,722.5,477.4211,718.5,473.4211,722.5,482.4211" style="stroke:#000000;stroke-width:1.0;"/></g><!--SRC=[dLHDRzim3BthLn2z9CMMFs0C1T8FR3biBT9YFGmxi39jgv4bJsAo0iF- -sXRpeUROEikiS2Gxpq-KeehuneCM8Es62FyKW2Ng5Tby6kNNtdh0pnMXgcD-v1Jw6ENLf8aDW_1_zmF_LQA3Lk2iwiEyDfWAV0Pp7Dic0BS8Sl7mSPBpSrBUoQufx0nckAPKXDum50IWt7oNu6QrFO4Yxu0RIhezBu3UY6zPbhIZpL5deR-cy7jqpDfFXyEhRW9N7cd0p41zegYwbj_2EXYumCdx46mgHjBDJcEn-bdmAFAR8SrlrkyLM6lvfDdiczMKkrLPJt6VoYOm80ECGq6fhq8YkTZkuGWZI4I1bqjlT34QH6yJFsUWt7bUs0_d8Mfo_ZsVTJi3gSmBbzwNyUfzHhPUBS3ob70CxYMpn9TIHsShtiq6Qurua-2JKRqiUJGq506dx7vCA2ExRpOjop51kSImYBVYJffPek2UPuGZfN6OLXZ2GAoyIRlsrgIxNo8bMcYEkpBpsONhwhLgMrkam-syzYYjKdRvH7wBtAEoial15DMmbcyPWJuACj9BkeAcuQiULxHxX9tzrroqChRGEdQ3yDGv79euTM8v4GNWlEL0YDQXf8S1KF2bQOGmI6sATjhEOiDQLDqILe4dEOxOiQ_SNKNxwyyJvxProtHmGYb_f72YZjpo44jhzyHUsyT5XMwLMSjRD217fwoxSiWMx9lvny0]--></g></svg>