<svg xmlns="http://www.w3.org/2000/svg" xmlns:xlink="http://www.w3.org/1999/xlink" contentStyleType="text/css" height="684px" preserveAspectRatio="none" style="width:877px;height:684px;background:#FFFFFF;" version="1.1" viewBox="0 0 877 684" width="877px" zoomAndPan="magnify"><defs/><g><!--class IExternalServiceFacade--><g id="elem_IExternalServiceFacade"><rect codeLine="3" fill="#F1F1F1" height="103.8633" id="IExternalServiceFacade" rx="2.5" ry="2.5" style="stroke:#181818;stroke-width:0.5;" width="324.4434" x="417" y="7"/><ellipse cx="500.6582" cy="23" fill="#B4A7E5" rx="11" ry="11" style="stroke:#181818;stroke-width:1.0;"/><path d="M501.6113,19.6406 L501.6113,26.2969 L503.3301,26.2969 Q503.9395,26.2969 504.2051,26.5313 Q504.4707,26.7656 504.4707,27.1563 Q504.4707,27.5313 504.2051,27.7656 Q503.9395,28 503.3301,28 L498.1895,28 Q497.5801,28 497.3145,27.7656 Q497.0488,27.5313 497.0488,27.1406 Q497.0488,26.7656 497.3145,26.5313 Q497.5801,26.2969 498.1895,26.2969 L499.9082,26.2969 L499.9082,19.6406 L498.1895,19.6406 Q497.5801,19.6406 497.3145,19.4063 Q497.0488,19.1719 497.0488,18.7813 Q497.0488,18.4063 497.3145,18.1719 Q497.5801,17.9375 498.1895,17.9375 L503.3301,17.9375 Q503.9395,17.9375 504.2051,18.1719 Q504.4707,18.4063 504.4707,18.7813 Q504.4707,19.1719 504.2051,19.4063 Q503.9395,19.6406 503.3301,19.6406 L501.6113,19.6406 Z " fill="#000000"/><text fill="#000000" font-family="sans-serif" font-size="14" font-style="italic" lengthAdjust="spacing" textLength="148.627" x="521.1582" y="28.7969">IExternalServiceFacade</text><line style="stroke:#181818;stroke-width:0.5;" x1="418" x2="740.4434" y1="39" y2="39"/><line style="stroke:#181818;stroke-width:0.5;" x1="418" x2="740.4434" y1="47" y2="47"/><text fill="#000000" font-family="sans-serif" font-size="14" lengthAdjust="spacing" textLength="289.8164" x="423" y="66.1074">+searchTrips(SearchCriteria): List&lt;TripResult&gt;</text><text fill="#000000" font-family="sans-serif" font-size="14" lengthAdjust="spacing" textLength="312.4434" x="423" y="84.7285">+bookTrip(BookingRequest): BookingConfirmation</text><text fill="#000000" font-family="sans-serif" font-size="14" lengthAdjust="spacing" textLength="307.7676" x="423" y="103.3496">+cancelTrip(String bookingId): CancellationResult</text></g><!--class ExternalServiceFacade--><g id="elem_ExternalServiceFacade"><rect codeLine="9" fill="#F1F1F1" height="159.7266" id="ExternalServiceFacade" rx="2.5" ry="2.5" style="stroke:#181818;stroke-width:0.5;" width="350.085" x="404" y="171"/><ellipse cx="502.4238" cy="187" fill="#ADD1B2" rx="11" ry="11" style="stroke:#181818;stroke-width:1.0;"/><path d="M505.1895,182.875 Q505.3457,182.6563 505.5332,182.5469 Q505.7207,182.4375 505.9395,182.4375 Q506.3145,182.4375 506.5488,182.7031 Q506.7832,182.9531 506.7832,183.5625 L506.7832,185.0156 Q506.7832,185.625 506.5488,185.8906 Q506.3145,186.1563 505.9395,186.1563 Q505.5957,186.1563 505.3926,185.9531 Q505.1895,185.7656 505.0801,185.25 Q505.0332,184.8906 504.8457,184.7031 Q504.5176,184.3281 503.9082,184.1094 Q503.2988,183.8906 502.6738,183.8906 Q501.9082,183.8906 501.2676,184.2188 Q500.6426,184.5469 500.1426,185.2969 Q499.6582,186.0469 499.6582,187.0781 L499.6582,188.1719 Q499.6582,189.4063 500.5488,190.2344 Q501.4395,191.0469 503.0332,191.0469 Q503.9707,191.0469 504.627,190.7969 Q505.0176,190.6406 505.4395,190.2031 Q505.7051,189.9375 505.8457,189.8594 Q506.002,189.7813 506.2051,189.7813 Q506.5332,189.7813 506.7832,190.0469 Q507.0488,190.2969 507.0488,190.6406 Q507.0488,190.9844 506.7051,191.3906 Q506.2051,191.9688 505.4082,192.2969 Q504.3301,192.75 503.0332,192.75 Q501.5176,192.75 500.3145,192.125 Q499.3301,191.625 498.6426,190.5625 Q497.9551,189.4844 497.9551,188.2031 L497.9551,187.0469 Q497.9551,185.7188 498.5645,184.5781 Q499.1895,183.4219 500.2832,182.8125 Q501.377,182.1875 502.6113,182.1875 Q503.3457,182.1875 503.9863,182.3594 Q504.6426,182.5156 505.1895,182.875 Z " fill="#000000"/><text fill="#000000" font-family="sans-serif" font-size="14" lengthAdjust="spacing" textLength="144.7373" x="522.9238" y="192.7969">ExternalServiceFacade</text><line style="stroke:#181818;stroke-width:0.5;" x1="405" x2="753.085" y1="203" y2="203"/><text fill="#000000" font-family="sans-serif" font-size="14" lengthAdjust="spacing" textLength="255.999" x="410" y="222.1074">-externalServices: List&lt;IExternalService&gt;</text><line style="stroke:#181818;stroke-width:0.5;" x1="405" x2="753.085" y1="229.6211" y2="229.6211"/><text fill="#000000" font-family="sans-serif" font-size="14" lengthAdjust="spacing" textLength="338.085" x="410" y="248.7285">+constructor(externalServices: List&lt;IExternalService&gt;)</text><text fill="#000000" font-family="sans-serif" font-size="14" lengthAdjust="spacing" textLength="289.8164" x="410" y="267.3496">+searchTrips(SearchCriteria): List&lt;TripResult&gt;</text><text fill="#000000" font-family="sans-serif" font-size="14" lengthAdjust="spacing" textLength="312.4434" x="410" y="285.9707">+bookTrip(BookingRequest): BookingConfirmation</text><text fill="#000000" font-family="sans-serif" font-size="14" lengthAdjust="spacing" textLength="307.7676" x="410" y="304.5918">+cancelTrip(String bookingId): CancellationResult</text><text fill="#000000" font-family="sans-serif" font-size="14" lengthAdjust="spacing" textLength="199.9922" x="410" y="323.2129">-validateRequest(Request): void</text></g><!--class IExternalService--><g id="elem_IExternalService"><rect codeLine="18" fill="#F1F1F1" height="85.2422" id="IExternalService" rx="2.5" ry="2.5" style="stroke:#181818;stroke-width:0.5;" width="201.499" x="358.5" y="391"/><ellipse cx="404.0342" cy="407" fill="#B4A7E5" rx="11" ry="11" style="stroke:#181818;stroke-width:1.0;"/><path d="M404.9873,403.6406 L404.9873,410.2969 L406.7061,410.2969 Q407.3154,410.2969 407.5811,410.5313 Q407.8467,410.7656 407.8467,411.1563 Q407.8467,411.5313 407.5811,411.7656 Q407.3154,412 406.7061,412 L401.5654,412 Q400.9561,412 400.6904,411.7656 Q400.4248,411.5313 400.4248,411.1406 Q400.4248,410.7656 400.6904,410.5313 Q400.9561,410.2969 401.5654,410.2969 L403.2842,410.2969 L403.2842,403.6406 L401.5654,403.6406 Q400.9561,403.6406 400.6904,403.4063 Q400.4248,403.1719 400.4248,402.7813 Q400.4248,402.4063 400.6904,402.1719 Q400.9561,401.9375 401.5654,401.9375 L406.7061,401.9375 Q407.3154,401.9375 407.5811,402.1719 Q407.8467,402.4063 407.8467,402.7813 Q407.8467,403.1719 407.5811,403.4063 Q407.3154,403.6406 406.7061,403.6406 L404.9873,403.6406 Z " fill="#000000"/><text fill="#000000" font-family="sans-serif" font-size="14" font-style="italic" lengthAdjust="spacing" textLength="101.9307" x="424.5342" y="412.7969">IExternalService</text><line style="stroke:#181818;stroke-width:0.5;" x1="359.5" x2="558.999" y1="423" y2="423"/><line style="stroke:#181818;stroke-width:0.5;" x1="359.5" x2="558.999" y1="431" y2="431"/><text fill="#000000" font-family="sans-serif" font-size="14" lengthAdjust="spacing" textLength="189.499" x="364.5" y="450.1074">+execute(Request): Response</text><text fill="#000000" font-family="sans-serif" font-size="14" lengthAdjust="spacing" textLength="186.4023" x="364.5" y="468.7285">+validate(Response): boolean</text></g><!--class TripAdvisorService--><g id="elem_TripAdvisorService"><rect codeLine="23" fill="#F1F1F1" height="141.1055" id="TripAdvisorService" rx="2.5" ry="2.5" style="stroke:#181818;stroke-width:0.5;" width="278.1299" x="7" y="536"/><ellipse cx="83.0771" cy="552" fill="#ADD1B2" rx="11" ry="11" style="stroke:#181818;stroke-width:1.0;"/><path d="M85.8428,547.875 Q85.999,547.6563 86.1865,547.5469 Q86.374,547.4375 86.5928,547.4375 Q86.9678,547.4375 87.2021,547.7031 Q87.4365,547.9531 87.4365,548.5625 L87.4365,550.0156 Q87.4365,550.625 87.2021,550.8906 Q86.9678,551.1563 86.5928,551.1563 Q86.249,551.1563 86.0459,550.9531 Q85.8428,550.7656 85.7334,550.25 Q85.6865,549.8906 85.499,549.7031 Q85.1709,549.3281 84.5615,549.1094 Q83.9521,548.8906 83.3271,548.8906 Q82.5615,548.8906 81.9209,549.2188 Q81.2959,549.5469 80.7959,550.2969 Q80.3115,551.0469 80.3115,552.0781 L80.3115,553.1719 Q80.3115,554.4063 81.2021,555.2344 Q82.0928,556.0469 83.6865,556.0469 Q84.624,556.0469 85.2803,555.7969 Q85.6709,555.6406 86.0928,555.2031 Q86.3584,554.9375 86.499,554.8594 Q86.6553,554.7813 86.8584,554.7813 Q87.1865,554.7813 87.4365,555.0469 Q87.7021,555.2969 87.7021,555.6406 Q87.7021,555.9844 87.3584,556.3906 Q86.8584,556.9688 86.0615,557.2969 Q84.9834,557.75 83.6865,557.75 Q82.1709,557.75 80.9678,557.125 Q79.9834,556.625 79.2959,555.5625 Q78.6084,554.4844 78.6084,553.2031 L78.6084,552.0469 Q78.6084,550.7188 79.2178,549.5781 Q79.8428,548.4219 80.9365,547.8125 Q82.0303,547.1875 83.2646,547.1875 Q83.999,547.1875 84.6396,547.3594 Q85.2959,547.5156 85.8428,547.875 Z " fill="#000000"/><text fill="#000000" font-family="sans-serif" font-size="14" lengthAdjust="spacing" textLength="117.4756" x="103.5771" y="557.7969">TripAdvisorService</text><line style="stroke:#181818;stroke-width:0.5;" x1="8" x2="284.1299" y1="568" y2="568"/><text fill="#000000" font-family="sans-serif" font-size="14" lengthAdjust="spacing" textLength="128.3857" x="13" y="587.1074">-apiClient: HttpClient</text><text fill="#000000" font-family="sans-serif" font-size="14" lengthAdjust="spacing" textLength="150.958" x="13" y="605.7285">-credentials: Credentials</text><line style="stroke:#181818;stroke-width:0.5;" x1="8" x2="284.1299" y1="613.2422" y2="613.2422"/><text fill="#000000" font-family="sans-serif" font-size="14" lengthAdjust="spacing" textLength="189.499" x="13" y="632.3496">+execute(Request): Response</text><text fill="#000000" font-family="sans-serif" font-size="14" lengthAdjust="spacing" textLength="186.4023" x="13" y="650.9707">+validate(Response): boolean</text><text fill="#000000" font-family="sans-serif" font-size="14" lengthAdjust="spacing" textLength="266.1299" x="13" y="669.5918">-mapResponse(RawResponse): Response</text></g><!--class BookingService--><g id="elem_BookingService"><rect codeLine="31" fill="#F1F1F1" height="141.1055" id="BookingService" rx="2.5" ry="2.5" style="stroke:#181818;stroke-width:0.5;" width="278.1299" x="320" y="536"/><ellipse cx="406.1772" cy="552" fill="#ADD1B2" rx="11" ry="11" style="stroke:#181818;stroke-width:1.0;"/><path d="M408.9429,547.875 Q409.0991,547.6563 409.2866,547.5469 Q409.4741,547.4375 409.6929,547.4375 Q410.0679,547.4375 410.3022,547.7031 Q410.5366,547.9531 410.5366,548.5625 L410.5366,550.0156 Q410.5366,550.625 410.3022,550.8906 Q410.0679,551.1563 409.6929,551.1563 Q409.3491,551.1563 409.146,550.9531 Q408.9429,550.7656 408.8335,550.25 Q408.7866,549.8906 408.5991,549.7031 Q408.271,549.3281 407.6616,549.1094 Q407.0522,548.8906 406.4272,548.8906 Q405.6616,548.8906 405.021,549.2188 Q404.396,549.5469 403.896,550.2969 Q403.4116,551.0469 403.4116,552.0781 L403.4116,553.1719 Q403.4116,554.4063 404.3022,555.2344 Q405.1929,556.0469 406.7866,556.0469 Q407.7241,556.0469 408.3804,555.7969 Q408.771,555.6406 409.1929,555.2031 Q409.4585,554.9375 409.5991,554.8594 Q409.7554,554.7813 409.9585,554.7813 Q410.2866,554.7813 410.5366,555.0469 Q410.8022,555.2969 410.8022,555.6406 Q410.8022,555.9844 410.4585,556.3906 Q409.9585,556.9688 409.1616,557.2969 Q408.0835,557.75 406.7866,557.75 Q405.271,557.75 404.0679,557.125 Q403.0835,556.625 402.396,555.5625 Q401.7085,554.4844 401.7085,553.2031 L401.7085,552.0469 Q401.7085,550.7188 402.3179,549.5781 Q402.9429,548.4219 404.0366,547.8125 Q405.1304,547.1875 406.3647,547.1875 Q407.0991,547.1875 407.7397,547.3594 Q408.396,547.5156 408.9429,547.875 Z " fill="#000000"/><text fill="#000000" font-family="sans-serif" font-size="14" lengthAdjust="spacing" textLength="97.2754" x="426.6772" y="557.7969">BookingService</text><line style="stroke:#181818;stroke-width:0.5;" x1="321" x2="597.1299" y1="568" y2="568"/><text fill="#000000" font-family="sans-serif" font-size="14" lengthAdjust="spacing" textLength="128.3857" x="326" y="587.1074">-apiClient: HttpClient</text><text fill="#000000" font-family="sans-serif" font-size="14" lengthAdjust="spacing" textLength="150.958" x="326" y="605.7285">-credentials: Credentials</text><line style="stroke:#181818;stroke-width:0.5;" x1="321" x2="597.1299" y1="613.2422" y2="613.2422"/><text fill="#000000" font-family="sans-serif" font-size="14" lengthAdjust="spacing" textLength="189.499" x="326" y="632.3496">+execute(Request): Response</text><text fill="#000000" font-family="sans-serif" font-size="14" lengthAdjust="spacing" textLength="186.4023" x="326" y="650.9707">+validate(Response): boolean</text><text fill="#000000" font-family="sans-serif" font-size="14" lengthAdjust="spacing" textLength="266.1299" x="326" y="669.5918">-mapResponse(RawResponse): Response</text></g><g id="elem_N1"><path d="M595,411 L595,455.582 A0,0 0 0 0 595,455.582 L804.5952,455.582 A0,0 0 0 0 804.5952,455.582 L804.5952,421 L794.5952,411 L689.56,411 L632.07,331.17 L681.56,411 L595,411 A0,0 0 0 0 595,411 " fill="#FEFFDD" style="stroke:#181818;stroke-width:0.5;"/><path d="M794.5952,411 L794.5952,421 L804.5952,421 L794.5952,411 " fill="#FEFFDD" style="stroke:#181818;stroke-width:0.5;"/><text fill="#000000" font-family="sans-serif" font-size="13" lengthAdjust="spacing" textLength="188.5952" x="601" y="430.0283">Facade Pattern hides complexity</text><text fill="#000000" font-family="sans-serif" font-size="13" lengthAdjust="spacing" textLength="175.5825" x="601" y="447.3193">of external service interactions</text></g><g id="elem_N2"><path d="M633,584 L633,628.582 A0,0 0 0 0 633,628.582 L870.8105,628.582 A0,0 0 0 0 870.8105,628.582 L870.8105,594 L860.8105,584 L718.88,584 L530.3,476.11 L710.88,584 L633,584 A0,0 0 0 0 633,584 " fill="#FEFFDD" style="stroke:#181818;stroke-width:0.5;"/><path d="M860.8105,584 L860.8105,594 L870.8105,594 L860.8105,584 " fill="#FEFFDD" style="stroke:#181818;stroke-width:0.5;"/><text fill="#000000" font-family="sans-serif" font-size="13" lengthAdjust="spacing" textLength="177.0298" x="639" y="603.0283">Single Responsibility Principle:</text><text fill="#000000" font-family="sans-serif" font-size="13" lengthAdjust="spacing" textLength="216.8105" x="639" y="620.3193">Each class has one reason to change</text></g><!--reverse link IExternalServiceFacade to ExternalServiceFacade--><g id="link_IExternalServiceFacade_ExternalServiceFacade"><path codeLine="41" d="M579,129.17 C579,147.52 579,150.67 579,170.84 " fill="none" id="IExternalServiceFacade-backto-ExternalServiceFacade" style="stroke:#181818;stroke-width:1.0;stroke-dasharray:7.0,7.0;"/><polygon fill="none" points="579,111.17,573,129.17,585,129.17,579,111.17" style="stroke:#181818;stroke-width:1.0;"/></g><!--reverse link IExternalService to TripAdvisorService--><g id="link_IExternalService_TripAdvisorService"><path codeLine="42" d="M367.0356,484.7434 C334.1056,502.7434 310.45,515.66 273.29,535.96 " fill="none" id="IExternalService-backto-TripAdvisorService" style="stroke:#181818;stroke-width:1.0;stroke-dasharray:7.0,7.0;"/><polygon fill="none" points="382.83,476.11,364.1578,479.4786,369.9134,490.0083,382.83,476.11" style="stroke:#181818;stroke-width:1.0;"/></g><!--reverse link IExternalService to BookingService--><g id="link_IExternalService_BookingService"><path codeLine="43" d="M459,494.33 C459,512.23 459,515.61 459,535.78 " fill="none" id="IExternalService-backto-BookingService" style="stroke:#181818;stroke-width:1.0;stroke-dasharray:7.0,7.0;"/><polygon fill="none" points="459,476.33,453,494.33,465,494.33,459,476.33" style="stroke:#181818;stroke-width:1.0;"/></g><!--link ExternalServiceFacade to IExternalService--><g id="link_ExternalServiceFacade_IExternalService"><path codeLine="45" d="M526.37,331.17 C512.76,351.63 501.973,367.8642 490.193,385.5742 " fill="none" id="ExternalServiceFacade-to-IExternalService" style="stroke:#181818;stroke-width:1.0;"/><polygon fill="#181818" points="486.87,390.57,495.185,385.2917,489.6392,386.4069,488.524,380.861,486.87,390.57" style="stroke:#181818;stroke-width:1.0;"/></g><!--SRC=[rLHBQzj04BxlhnXogK9nQ7Cq8IKHAJMK4gn2BxwCLsDhy6fNtLsxxkk_TxIINtK4XLwIaySxtyptpKjXnRP1ZpLeWo7SnUXvleuqqSuM_8FWZL9i8_a5QeB9mrPCYwOWls5Dxr5ZIV1J0Ro6GEXrzTbp4x8YsRbdWJDUZk4ZXtZJ-gOKrYRUfeYvSwlsBRiNW-roIb_N5AB0-uVSsGNx6YCxco8qMaqcnHIYr2vJ3lcTb1AL9wz9y8v7_LOg5GR3oaT0fxxGo_sxsawqD2P4lzRH-UnV0o-VRuFQ-ZTekCH8VVhiGBDnNBOz75w1VlYq9IrhSnGg-Hjf5INtZY7RlGf0X1b2UnXHg_gkt71m_ZZv2B3Xt33PE8OFCJQTdJpQKoasev7UvuS__wkfpLrZi_DaK_nsXDgdsKlln_5oP2irSCitlwwkdZwMiuWEUpwr0U1fZvHwcdyqkZtRCQMiYmGNFUGHO-k6YaiASezrOsZByVlCkiN-bkNQEkwqkgZRbGyNW04-lHsW5etYwxaAaMferpEUin46U9IJqYnyuvbzG5rrNqse9Asp19umE0lHWQxGBgdZkpvlI4jrhTIhZkiBedSrtADUaItbIeq9i664quBVpUmV]--></g></svg>