<svg xmlns="http://www.w3.org/2000/svg" xmlns:xlink="http://www.w3.org/1999/xlink" contentStyleType="text/css" height="606px" preserveAspectRatio="none" style="width:215px;height:606px;background:#FFFFFF;" version="1.1" viewBox="0 0 215 606" width="215px" zoomAndPan="magnify"><defs/><g><!--class BookingController--><g id="elem_BookingController"><rect codeLine="2" fill="#F1F1F1" height="66.6211" id="BookingController" rx="2.5" ry="2.5" style="stroke:#181818;stroke-width:0.5;" width="143.2822" x="36.5" y="7"/><ellipse cx="51.5" cy="23" fill="#ADD1B2" rx="11" ry="11" style="stroke:#181818;stroke-width:1.0;"/><path d="M54.2656,18.875 Q54.4219,18.6563 54.6094,18.5469 Q54.7969,18.4375 55.0156,18.4375 Q55.3906,18.4375 55.625,18.7031 Q55.8594,18.9531 55.8594,19.5625 L55.8594,21.0156 Q55.8594,21.625 55.625,21.8906 Q55.3906,22.1563 55.0156,22.1563 Q54.6719,22.1563 54.4688,21.9531 Q54.2656,21.7656 54.1563,21.25 Q54.1094,20.8906 53.9219,20.7031 Q53.5938,20.3281 52.9844,20.1094 Q52.375,19.8906 51.75,19.8906 Q50.9844,19.8906 50.3438,20.2188 Q49.7188,20.5469 49.2188,21.2969 Q48.7344,22.0469 48.7344,23.0781 L48.7344,24.1719 Q48.7344,25.4063 49.625,26.2344 Q50.5156,27.0469 52.1094,27.0469 Q53.0469,27.0469 53.7031,26.7969 Q54.0938,26.6406 54.5156,26.2031 Q54.7813,25.9375 54.9219,25.8594 Q55.0781,25.7813 55.2813,25.7813 Q55.6094,25.7813 55.8594,26.0469 Q56.125,26.2969 56.125,26.6406 Q56.125,26.9844 55.7813,27.3906 Q55.2813,27.9688 54.4844,28.2969 Q53.4063,28.75 52.1094,28.75 Q50.5938,28.75 49.3906,28.125 Q48.4063,27.625 47.7188,26.5625 Q47.0313,25.4844 47.0313,24.2031 L47.0313,23.0469 Q47.0313,21.7188 47.6406,20.5781 Q48.2656,19.4219 49.3594,18.8125 Q50.4531,18.1875 51.6875,18.1875 Q52.4219,18.1875 53.0625,18.3594 Q53.7188,18.5156 54.2656,18.875 Z " fill="#000000"/><text fill="#000000" font-family="sans-serif" font-size="14" lengthAdjust="spacing" textLength="111.2822" x="65.5" y="28.7969">BookingController</text><line style="stroke:#181818;stroke-width:0.5;" x1="37.5" x2="178.7822" y1="39" y2="39"/><line style="stroke:#181818;stroke-width:0.5;" x1="37.5" x2="178.7822" y1="47" y2="47"/><ellipse cx="47.5" cy="61.8105" fill="#84BE84" rx="3" ry="3" style="stroke:#038048;stroke-width:1.0;"/><text fill="#000000" font-family="sans-serif" font-size="14" lengthAdjust="spacing" textLength="108.9512" x="56.5" y="66.1074">getBookingData()</text></g><!--class BookingService--><g id="elem_BookingService"><rect codeLine="6" fill="#F1F1F1" height="66.6211" id="BookingService" rx="2.5" ry="2.5" style="stroke:#181818;stroke-width:0.5;" width="134.9512" x="40.5" y="134"/><ellipse cx="58.0541" cy="150" fill="#ADD1B2" rx="11" ry="11" style="stroke:#181818;stroke-width:1.0;"/><path d="M60.8197,145.875 Q60.976,145.6563 61.1635,145.5469 Q61.351,145.4375 61.5697,145.4375 Q61.9447,145.4375 62.1791,145.7031 Q62.4135,145.9531 62.4135,146.5625 L62.4135,148.0156 Q62.4135,148.625 62.1791,148.8906 Q61.9447,149.1563 61.5697,149.1563 Q61.226,149.1563 61.0229,148.9531 Q60.8197,148.7656 60.7104,148.25 Q60.6635,147.8906 60.476,147.7031 Q60.1479,147.3281 59.5385,147.1094 Q58.9291,146.8906 58.3041,146.8906 Q57.5385,146.8906 56.8979,147.2188 Q56.2729,147.5469 55.7729,148.2969 Q55.2885,149.0469 55.2885,150.0781 L55.2885,151.1719 Q55.2885,152.4063 56.1791,153.2344 Q57.0697,154.0469 58.6635,154.0469 Q59.601,154.0469 60.2572,153.7969 Q60.6479,153.6406 61.0697,153.2031 Q61.3354,152.9375 61.476,152.8594 Q61.6322,152.7813 61.8354,152.7813 Q62.1635,152.7813 62.4135,153.0469 Q62.6791,153.2969 62.6791,153.6406 Q62.6791,153.9844 62.3354,154.3906 Q61.8354,154.9688 61.0385,155.2969 Q59.9604,155.75 58.6635,155.75 Q57.1479,155.75 55.9447,155.125 Q54.9604,154.625 54.2729,153.5625 Q53.5854,152.4844 53.5854,151.2031 L53.5854,150.0469 Q53.5854,148.7188 54.1947,147.5781 Q54.8197,146.4219 55.9135,145.8125 Q57.0072,145.1875 58.2416,145.1875 Q58.976,145.1875 59.6166,145.3594 Q60.2729,145.5156 60.8197,145.875 Z " fill="#000000"/><text fill="#000000" font-family="sans-serif" font-size="14" lengthAdjust="spacing" textLength="97.2754" x="72.6217" y="155.7969">BookingService</text><line style="stroke:#181818;stroke-width:0.5;" x1="41.5" x2="174.4512" y1="166" y2="166"/><line style="stroke:#181818;stroke-width:0.5;" x1="41.5" x2="174.4512" y1="174" y2="174"/><ellipse cx="51.5" cy="188.8105" fill="#84BE84" rx="3" ry="3" style="stroke:#038048;stroke-width:1.0;"/><text fill="#000000" font-family="sans-serif" font-size="14" lengthAdjust="spacing" textLength="108.9512" x="60.5" y="193.1074">getBookingData()</text></g><!--class ExternalController--><g id="elem_ExternalController"><rect codeLine="10" fill="#F1F1F1" height="85.2422" id="ExternalController" rx="2.5" ry="2.5" style="stroke:#181818;stroke-width:0.5;" width="201.8545" x="7" y="261"/><ellipse cx="48.013" cy="277" fill="#ADD1B2" rx="11" ry="11" style="stroke:#181818;stroke-width:1.0;"/><path d="M50.7786,272.875 Q50.9349,272.6563 51.1224,272.5469 Q51.3099,272.4375 51.5286,272.4375 Q51.9036,272.4375 52.138,272.7031 Q52.3724,272.9531 52.3724,273.5625 L52.3724,275.0156 Q52.3724,275.625 52.138,275.8906 Q51.9036,276.1563 51.5286,276.1563 Q51.1849,276.1563 50.9817,275.9531 Q50.7786,275.7656 50.6692,275.25 Q50.6224,274.8906 50.4349,274.7031 Q50.1067,274.3281 49.4974,274.1094 Q48.888,273.8906 48.263,273.8906 Q47.4974,273.8906 46.8567,274.2188 Q46.2317,274.5469 45.7317,275.2969 Q45.2474,276.0469 45.2474,277.0781 L45.2474,278.1719 Q45.2474,279.4063 46.138,280.2344 Q47.0286,281.0469 48.6224,281.0469 Q49.5599,281.0469 50.2161,280.7969 Q50.6067,280.6406 51.0286,280.2031 Q51.2942,279.9375 51.4349,279.8594 Q51.5911,279.7813 51.7942,279.7813 Q52.1224,279.7813 52.3724,280.0469 Q52.638,280.2969 52.638,280.6406 Q52.638,280.9844 52.2942,281.3906 Q51.7942,281.9688 50.9974,282.2969 Q49.9192,282.75 48.6224,282.75 Q47.1067,282.75 45.9036,282.125 Q44.9192,281.625 44.2317,280.5625 Q43.5442,279.4844 43.5442,278.2031 L43.5442,277.0469 Q43.5442,275.7188 44.1536,274.5781 Q44.7786,273.4219 45.8724,272.8125 Q46.9661,272.1875 48.2005,272.1875 Q48.9349,272.1875 49.5755,272.3594 Q50.2317,272.5156 50.7786,272.875 Z " fill="#000000"/><text fill="#000000" font-family="sans-serif" font-size="14" lengthAdjust="spacing" textLength="112.0479" x="67.7937" y="282.7969">ExternalController</text><line style="stroke:#181818;stroke-width:0.5;" x1="8" x2="207.8545" y1="293" y2="293"/><ellipse cx="18" cy="307.8105" fill="none" rx="3" ry="3" style="stroke:#038048;stroke-width:1.0;"/><text fill="#000000" font-family="sans-serif" font-size="14" lengthAdjust="spacing" textLength="175.8545" x="27" y="312.1074">ErrorHandlerImplementation</text><line style="stroke:#181818;stroke-width:0.5;" x1="8" x2="207.8545" y1="319.6211" y2="319.6211"/><ellipse cx="18" cy="334.4316" fill="#84BE84" rx="3" ry="3" style="stroke:#038048;stroke-width:1.0;"/><text fill="#000000" font-family="sans-serif" font-size="14" lengthAdjust="spacing" textLength="90.2412" x="27" y="338.7285">makeAPICall()</text></g><!--class ExternalErrorStrategy--><g id="elem_ExternalErrorStrategy"><rect codeLine="15" fill="#F1F1F1" height="66.6211" id="ExternalErrorStrategy" rx="2.5" ry="2.5" style="stroke:#181818;stroke-width:0.5;" width="188.6133" x="13.5" y="533"/><ellipse cx="38.4031" cy="549" fill="#B4A7E5" rx="11" ry="11" style="stroke:#181818;stroke-width:1.0;"/><path d="M39.3562,545.6406 L39.3562,552.2969 L41.075,552.2969 Q41.6843,552.2969 41.95,552.5313 Q42.2156,552.7656 42.2156,553.1563 Q42.2156,553.5313 41.95,553.7656 Q41.6843,554 41.075,554 L35.9343,554 Q35.325,554 35.0593,553.7656 Q34.7937,553.5313 34.7937,553.1406 Q34.7937,552.7656 35.0593,552.5313 Q35.325,552.2969 35.9343,552.2969 L37.6531,552.2969 L37.6531,545.6406 L35.9343,545.6406 Q35.325,545.6406 35.0593,545.4063 Q34.7937,545.1719 34.7937,544.7813 Q34.7937,544.4063 35.0593,544.1719 Q35.325,543.9375 35.9343,543.9375 L41.075,543.9375 Q41.6843,543.9375 41.95,544.1719 Q42.2156,544.4063 42.2156,544.7813 Q42.2156,545.1719 41.95,545.4063 Q41.6843,545.6406 41.075,545.6406 L39.3562,545.6406 Z " fill="#000000"/><text fill="#000000" font-family="sans-serif" font-size="14" font-style="italic" lengthAdjust="spacing" textLength="134.6064" x="54.6038" y="554.7969">ExternalErrorStrategy</text><line style="stroke:#181818;stroke-width:0.5;" x1="14.5" x2="201.1133" y1="565" y2="565"/><line style="stroke:#181818;stroke-width:0.5;" x1="14.5" x2="201.1133" y1="573" y2="573"/><rect fill="#F24D5C" height="6" style="stroke:#C82930;stroke-width:1.0;" width="6" x="21.5" y="584.8105"/><text fill="#000000" font-family="sans-serif" font-size="14" lengthAdjust="spacing" textLength="162.6133" x="33.5" y="592.1074">returnAPIErrorResponse()</text></g><!--class BookingErrorHandler--><g id="elem_BookingErrorHandler"><rect codeLine="19" fill="#F1F1F1" height="66.6211" id="BookingErrorHandler" rx="2.5" ry="2.5" style="stroke:#181818;stroke-width:0.5;" width="188.6133" x="13.5" y="406"/><ellipse cx="40.1473" cy="422" fill="#ADD1B2" rx="11" ry="11" style="stroke:#181818;stroke-width:1.0;"/><path d="M42.9129,417.875 Q43.0691,417.6563 43.2566,417.5469 Q43.4441,417.4375 43.6629,417.4375 Q44.0379,417.4375 44.2723,417.7031 Q44.5066,417.9531 44.5066,418.5625 L44.5066,420.0156 Q44.5066,420.625 44.2723,420.8906 Q44.0379,421.1563 43.6629,421.1563 Q43.3191,421.1563 43.116,420.9531 Q42.9129,420.7656 42.8035,420.25 Q42.7566,419.8906 42.5691,419.7031 Q42.241,419.3281 41.6316,419.1094 Q41.0223,418.8906 40.3973,418.8906 Q39.6316,418.8906 38.991,419.2188 Q38.366,419.5469 37.866,420.2969 Q37.3816,421.0469 37.3816,422.0781 L37.3816,423.1719 Q37.3816,424.4063 38.2723,425.2344 Q39.1629,426.0469 40.7566,426.0469 Q41.6941,426.0469 42.3504,425.7969 Q42.741,425.6406 43.1629,425.2031 Q43.4285,424.9375 43.5691,424.8594 Q43.7254,424.7813 43.9285,424.7813 Q44.2566,424.7813 44.5066,425.0469 Q44.7723,425.2969 44.7723,425.6406 Q44.7723,425.9844 44.4285,426.3906 Q43.9285,426.9688 43.1316,427.2969 Q42.0535,427.75 40.7566,427.75 Q39.241,427.75 38.0379,427.125 Q37.0535,426.625 36.366,425.5625 Q35.6785,424.4844 35.6785,423.2031 L35.6785,422.0469 Q35.6785,420.7188 36.2879,419.5781 Q36.9129,418.4219 38.0066,417.8125 Q39.1004,417.1875 40.3348,417.1875 Q41.0691,417.1875 41.7098,417.3594 Q42.366,417.5156 42.9129,417.875 Z " fill="#000000"/><text fill="#000000" font-family="sans-serif" font-size="14" lengthAdjust="spacing" textLength="130.7305" x="56.7355" y="427.7969">BookingErrorHandler</text><line style="stroke:#181818;stroke-width:0.5;" x1="14.5" x2="201.1133" y1="438" y2="438"/><line style="stroke:#181818;stroke-width:0.5;" x1="14.5" x2="201.1133" y1="446" y2="446"/><rect fill="#F24D5C" height="6" style="stroke:#C82930;stroke-width:1.0;" width="6" x="21.5" y="457.8105"/><text fill="#000000" font-family="sans-serif" font-size="14" lengthAdjust="spacing" textLength="162.6133" x="33.5" y="465.1074">returnAPIErrorResponse()</text></g><!--link BookingController to BookingService--><g id="link_BookingController_BookingService"><path codeLine="23" d="M108,74.02 C108,92.39 108,109.29 108,127.71 " fill="none" id="BookingController-to-BookingService" style="stroke:#181818;stroke-width:1.0;"/><polygon fill="#181818" points="108,133.71,112,124.71,108,128.71,104,124.71,108,133.71" style="stroke:#181818;stroke-width:1.0;"/><text fill="#000000" font-family="sans-serif" font-size="13" lengthAdjust="spacing" textLength="7.23" x="100.3719" y="95.5928">1</text><text fill="#000000" font-family="sans-serif" font-size="13" lengthAdjust="spacing" textLength="7.23" x="100.3594" y="122.7406">1</text></g><!--link BookingService to ExternalController--><g id="link_BookingService_ExternalController"><path codeLine="24" d="M108,201.28 C108,219.26 108,235.72 108,254.92 " fill="none" id="BookingService-to-ExternalController" style="stroke:#181818;stroke-width:1.0;"/><polygon fill="#181818" points="108,260.92,112,251.92,108,255.92,104,251.92,108,260.92" style="stroke:#181818;stroke-width:1.0;"/><text fill="#000000" font-family="sans-serif" font-size="13" lengthAdjust="spacing" textLength="7.23" x="100.4224" y="222.6328">1</text><text fill="#000000" font-family="sans-serif" font-size="13" lengthAdjust="spacing" textLength="7.23" x="100.4721" y="249.8113">1</text></g><!--link ExternalController to BookingErrorHandler--><g id="link_ExternalController_BookingErrorHandler"><path codeLine="26" d="M108,346.16 C108,365.37 108,381.84 108,399.8 " fill="none" id="ExternalController-to-BookingErrorHandler" style="stroke:#181818;stroke-width:1.0;"/><polygon fill="#181818" points="108,405.8,112,396.8,108,400.8,104,396.8,108,405.8" style="stroke:#181818;stroke-width:1.0;"/><text fill="#000000" font-family="sans-serif" font-size="13" lengthAdjust="spacing" textLength="7.23" x="100.4721" y="368.3458">1</text><text fill="#000000" font-family="sans-serif" font-size="13" lengthAdjust="spacing" textLength="19.5127" x="87.2748" y="394.8478">1..*</text></g><!--link BookingErrorHandler to ExternalErrorStrategy--><g id="link_BookingErrorHandler_ExternalErrorStrategy"><path codeLine="27" d="M108,473.02 C108,491.39 108,496.29 108,514.71 " fill="none" id="BookingErrorHandler-to-ExternalErrorStrategy" style="stroke:#181818;stroke-width:1.0;stroke-dasharray:7.0,7.0;"/><polygon fill="none" points="108,532.71,114,514.71,102,514.71,108,532.71" style="stroke:#181818;stroke-width:1.0;"/></g><!--SRC=[XL3RIiD047tVhnZougKauBDGq5gmRyL-mPWSuvhDR9XiYxRwxovhaOG4tPTbvjo6St7lVMEb9jiJ87JmNfy1Lv4Lgd04LPPhvVQMNX6eOKaqbWfAU0zG0N5dwVWcfdJSztHsN7a9wfs3dWp5jw0QuOmzSE3BA_Dbnf8Tz61BHFvVv7LAPJSCMD1QrUjZl2lEcxPpQ261W_KImPORt6qtAtRknybAz7ZX4hzkIRyBoW7rnydaf0XxbQXAo1FwpakFcQk7oVy99zrGTfDHdY_JFwx1ZCSHSzg1CTFTG58KrzdSmMPcHqNnkPmlndm3]--></g></svg>