<svg xmlns="http://www.w3.org/2000/svg" xmlns:xlink="http://www.w3.org/1999/xlink" contentStyleType="text/css" height="389px" preserveAspectRatio="none" style="width:933px;height:389px;background:#FFFFFF;" version="1.1" viewBox="0 0 933 389" width="933px" zoomAndPan="magnify"><defs/><g><!--class ExternalController--><g id="elem_ExternalController"><rect codeLine="1" fill="#F1F1F1" height="103.8633" id="ExternalController" rx="2.5" ry="2.5" style="stroke:#181818;stroke-width:0.5;" width="232.2129" x="7" y="7"/><ellipse cx="62.8325" cy="23" fill="#ADD1B2" rx="11" ry="11" style="stroke:#181818;stroke-width:1.0;"/><path d="M65.5981,18.875 Q65.7544,18.6563 65.9419,18.5469 Q66.1294,18.4375 66.3481,18.4375 Q66.7231,18.4375 66.9575,18.7031 Q67.1919,18.9531 67.1919,19.5625 L67.1919,21.0156 Q67.1919,21.625 66.9575,21.8906 Q66.7231,22.1563 66.3481,22.1563 Q66.0044,22.1563 65.8013,21.9531 Q65.5981,21.7656 65.4888,21.25 Q65.4419,20.8906 65.2544,20.7031 Q64.9263,20.3281 64.3169,20.1094 Q63.7075,19.8906 63.0825,19.8906 Q62.3169,19.8906 61.6763,20.2188 Q61.0513,20.5469 60.5513,21.2969 Q60.0669,22.0469 60.0669,23.0781 L60.0669,24.1719 Q60.0669,25.4063 60.9575,26.2344 Q61.8481,27.0469 63.4419,27.0469 Q64.3794,27.0469 65.0356,26.7969 Q65.4263,26.6406 65.8481,26.2031 Q66.1138,25.9375 66.2544,25.8594 Q66.4106,25.7813 66.6138,25.7813 Q66.9419,25.7813 67.1919,26.0469 Q67.4575,26.2969 67.4575,26.6406 Q67.4575,26.9844 67.1138,27.3906 Q66.6138,27.9688 65.8169,28.2969 Q64.7388,28.75 63.4419,28.75 Q61.9263,28.75 60.7231,28.125 Q59.7388,27.625 59.0513,26.5625 Q58.3638,25.4844 58.3638,24.2031 L58.3638,23.0469 Q58.3638,21.7188 58.9731,20.5781 Q59.5981,19.4219 60.6919,18.8125 Q61.7856,18.1875 63.02,18.1875 Q63.7544,18.1875 64.395,18.3594 Q65.0513,18.5156 65.5981,18.875 Z " fill="#000000"/><text fill="#000000" font-family="sans-serif" font-size="14" lengthAdjust="spacing" textLength="112.0479" x="83.3325" y="28.7969">ExternalController</text><line style="stroke:#181818;stroke-width:0.5;" x1="8" x2="238.2129" y1="39" y2="39"/><ellipse cx="18" cy="53.8105" fill="none" rx="3" ry="3" style="stroke:#038048;stroke-width:1.0;"/><text fill="#000000" font-family="sans-serif" font-size="14" lengthAdjust="spacing" textLength="206.2129" x="27" y="58.1074">strategyContext: StrategyContext</text><line style="stroke:#181818;stroke-width:0.5;" x1="8" x2="238.2129" y1="65.6211" y2="65.6211"/><ellipse cx="18" cy="80.4316" fill="#84BE84" rx="3" ry="3" style="stroke:#038048;stroke-width:1.0;"/><text fill="#000000" font-family="sans-serif" font-size="14" lengthAdjust="spacing" textLength="161.0615" x="27" y="84.7285">makeAPICall(): Response</text><ellipse cx="18" cy="99.0527" fill="#84BE84" rx="3" ry="3" style="stroke:#038048;stroke-width:1.0;"/><text fill="#000000" font-family="sans-serif" font-size="14" lengthAdjust="spacing" textLength="113.5996" x="27" y="103.3496">setStrategy(): void</text></g><!--class StrategyContext--><g id="elem_StrategyContext"><rect codeLine="7" fill="#F1F1F1" height="85.2422" id="StrategyContext" rx="2.5" ry="2.5" style="stroke:#181818;stroke-width:0.5;" width="218.1855" x="14" y="171"/><ellipse cx="68.6499" cy="187" fill="#ADD1B2" rx="11" ry="11" style="stroke:#181818;stroke-width:1.0;"/><path d="M71.4155,182.875 Q71.5718,182.6563 71.7593,182.5469 Q71.9468,182.4375 72.1655,182.4375 Q72.5405,182.4375 72.7749,182.7031 Q73.0093,182.9531 73.0093,183.5625 L73.0093,185.0156 Q73.0093,185.625 72.7749,185.8906 Q72.5405,186.1563 72.1655,186.1563 Q71.8218,186.1563 71.6187,185.9531 Q71.4155,185.7656 71.3062,185.25 Q71.2593,184.8906 71.0718,184.7031 Q70.7437,184.3281 70.1343,184.1094 Q69.5249,183.8906 68.8999,183.8906 Q68.1343,183.8906 67.4937,184.2188 Q66.8687,184.5469 66.3687,185.2969 Q65.8843,186.0469 65.8843,187.0781 L65.8843,188.1719 Q65.8843,189.4063 66.7749,190.2344 Q67.6655,191.0469 69.2593,191.0469 Q70.1968,191.0469 70.853,190.7969 Q71.2437,190.6406 71.6655,190.2031 Q71.9312,189.9375 72.0718,189.8594 Q72.228,189.7813 72.4312,189.7813 Q72.7593,189.7813 73.0093,190.0469 Q73.2749,190.2969 73.2749,190.6406 Q73.2749,190.9844 72.9312,191.3906 Q72.4312,191.9688 71.6343,192.2969 Q70.5562,192.75 69.2593,192.75 Q67.7437,192.75 66.5405,192.125 Q65.5562,191.625 64.8687,190.5625 Q64.1812,189.4844 64.1812,188.2031 L64.1812,187.0469 Q64.1812,185.7188 64.7905,184.5781 Q65.4155,183.4219 66.5093,182.8125 Q67.603,182.1875 68.8374,182.1875 Q69.5718,182.1875 70.2124,182.3594 Q70.8687,182.5156 71.4155,182.875 Z " fill="#000000"/><text fill="#000000" font-family="sans-serif" font-size="14" lengthAdjust="spacing" textLength="100.3857" x="89.1499" y="192.7969">StrategyContext</text><line style="stroke:#181818;stroke-width:0.5;" x1="15" x2="231.1855" y1="203" y2="203"/><rect fill="none" height="6" style="stroke:#C82930;stroke-width:1.0;" width="6" x="22" y="214.8105"/><text fill="#000000" font-family="sans-serif" font-size="14" lengthAdjust="spacing" textLength="192.1855" x="34" y="222.1074">strategy: ExternalErrorStrategy</text><line style="stroke:#181818;stroke-width:0.5;" x1="15" x2="231.1855" y1="229.6211" y2="229.6211"/><ellipse cx="25" cy="244.4316" fill="#84BE84" rx="3" ry="3" style="stroke:#038048;stroke-width:1.0;"/><text fill="#000000" font-family="sans-serif" font-size="14" lengthAdjust="spacing" textLength="113.5996" x="34" y="248.7285">setStrategy(): void</text></g><!--class APIStrategy--><g id="elem_APIStrategy"><rect codeLine="12" fill="#F1F1F1" height="66.6211" id="APIStrategy" rx="2.5" ry="2.5" style="stroke:#181818;stroke-width:0.5;" width="114.71" x="455.5" y="316"/><ellipse cx="474.1031" cy="332" fill="#B4A7E5" rx="11" ry="11" style="stroke:#181818;stroke-width:1.0;"/><path d="M475.0562,328.6406 L475.0562,335.2969 L476.775,335.2969 Q477.3843,335.2969 477.65,335.5313 Q477.9156,335.7656 477.9156,336.1563 Q477.9156,336.5313 477.65,336.7656 Q477.3843,337 476.775,337 L471.6343,337 Q471.025,337 470.7593,336.7656 Q470.4937,336.5313 470.4937,336.1406 Q470.4937,335.7656 470.7593,335.5313 Q471.025,335.2969 471.6343,335.2969 L473.3531,335.2969 L473.3531,328.6406 L471.6343,328.6406 Q471.025,328.6406 470.7593,328.4063 Q470.4937,328.1719 470.4937,327.7813 Q470.4937,327.4063 470.7593,327.1719 Q471.025,326.9375 471.6343,326.9375 L476.775,326.9375 Q477.3843,326.9375 477.65,327.1719 Q477.9156,327.4063 477.9156,327.7813 Q477.9156,328.1719 477.65,328.4063 Q477.3843,328.6406 476.775,328.6406 L475.0562,328.6406 Z " fill="#000000"/><text fill="#000000" font-family="sans-serif" font-size="14" font-style="italic" lengthAdjust="spacing" textLength="74.7031" x="488.9038" y="337.7969">APIStrategy</text><line style="stroke:#181818;stroke-width:0.5;" x1="456.5" x2="569.21" y1="348" y2="348"/><line style="stroke:#181818;stroke-width:0.5;" x1="456.5" x2="569.21" y1="356" y2="356"/><rect fill="#F24D5C" height="6" style="stroke:#C82930;stroke-width:1.0;" width="6" x="463.5" y="367.8105"/><text fill="#000000" font-family="sans-serif" font-size="14" lengthAdjust="spacing" textLength="88.71" x="475.5" y="375.1074">getData(): any</text></g><!--class BookingAPICall--><g id="elem_BookingAPICall"><rect codeLine="16" fill="#F1F1F1" height="66.6211" id="BookingAPICall" rx="2.5" ry="2.5" style="stroke:#181818;stroke-width:0.5;" width="129.2754" x="267.5" y="180"/><ellipse cx="282.5" cy="196" fill="#ADD1B2" rx="11" ry="11" style="stroke:#181818;stroke-width:1.0;"/><path d="M285.2656,191.875 Q285.4219,191.6563 285.6094,191.5469 Q285.7969,191.4375 286.0156,191.4375 Q286.3906,191.4375 286.625,191.7031 Q286.8594,191.9531 286.8594,192.5625 L286.8594,194.0156 Q286.8594,194.625 286.625,194.8906 Q286.3906,195.1563 286.0156,195.1563 Q285.6719,195.1563 285.4688,194.9531 Q285.2656,194.7656 285.1563,194.25 Q285.1094,193.8906 284.9219,193.7031 Q284.5938,193.3281 283.9844,193.1094 Q283.375,192.8906 282.75,192.8906 Q281.9844,192.8906 281.3438,193.2188 Q280.7188,193.5469 280.2188,194.2969 Q279.7344,195.0469 279.7344,196.0781 L279.7344,197.1719 Q279.7344,198.4063 280.625,199.2344 Q281.5156,200.0469 283.1094,200.0469 Q284.0469,200.0469 284.7031,199.7969 Q285.0938,199.6406 285.5156,199.2031 Q285.7813,198.9375 285.9219,198.8594 Q286.0781,198.7813 286.2813,198.7813 Q286.6094,198.7813 286.8594,199.0469 Q287.125,199.2969 287.125,199.6406 Q287.125,199.9844 286.7813,200.3906 Q286.2813,200.9688 285.4844,201.2969 Q284.4063,201.75 283.1094,201.75 Q281.5938,201.75 280.3906,201.125 Q279.4063,200.625 278.7188,199.5625 Q278.0313,198.4844 278.0313,197.2031 L278.0313,196.0469 Q278.0313,194.7188 278.6406,193.5781 Q279.2656,192.4219 280.3594,191.8125 Q281.4531,191.1875 282.6875,191.1875 Q283.4219,191.1875 284.0625,191.3594 Q284.7188,191.5156 285.2656,191.875 Z " fill="#000000"/><text fill="#000000" font-family="sans-serif" font-size="14" lengthAdjust="spacing" textLength="97.2754" x="296.5" y="201.7969">BookingAPICall</text><line style="stroke:#181818;stroke-width:0.5;" x1="268.5" x2="395.7754" y1="212" y2="212"/><line style="stroke:#181818;stroke-width:0.5;" x1="268.5" x2="395.7754" y1="220" y2="220"/><rect fill="#F24D5C" height="6" style="stroke:#C82930;stroke-width:1.0;" width="6" x="275.5" y="231.8105"/><text fill="#000000" font-family="sans-serif" font-size="14" lengthAdjust="spacing" textLength="88.71" x="287.5" y="239.1074">getData(): any</text></g><!--class BookingErrorHandler--><g id="elem_BookingErrorHandler"><rect codeLine="20" fill="#F1F1F1" height="66.6211" id="BookingErrorHandler" rx="2.5" ry="2.5" style="stroke:#181818;stroke-width:0.5;" width="162.7305" x="431.5" y="180"/><ellipse cx="446.5" cy="196" fill="#ADD1B2" rx="11" ry="11" style="stroke:#181818;stroke-width:1.0;"/><path d="M449.2656,191.875 Q449.4219,191.6563 449.6094,191.5469 Q449.7969,191.4375 450.0156,191.4375 Q450.3906,191.4375 450.625,191.7031 Q450.8594,191.9531 450.8594,192.5625 L450.8594,194.0156 Q450.8594,194.625 450.625,194.8906 Q450.3906,195.1563 450.0156,195.1563 Q449.6719,195.1563 449.4688,194.9531 Q449.2656,194.7656 449.1563,194.25 Q449.1094,193.8906 448.9219,193.7031 Q448.5938,193.3281 447.9844,193.1094 Q447.375,192.8906 446.75,192.8906 Q445.9844,192.8906 445.3438,193.2188 Q444.7188,193.5469 444.2188,194.2969 Q443.7344,195.0469 443.7344,196.0781 L443.7344,197.1719 Q443.7344,198.4063 444.625,199.2344 Q445.5156,200.0469 447.1094,200.0469 Q448.0469,200.0469 448.7031,199.7969 Q449.0938,199.6406 449.5156,199.2031 Q449.7813,198.9375 449.9219,198.8594 Q450.0781,198.7813 450.2813,198.7813 Q450.6094,198.7813 450.8594,199.0469 Q451.125,199.2969 451.125,199.6406 Q451.125,199.9844 450.7813,200.3906 Q450.2813,200.9688 449.4844,201.2969 Q448.4063,201.75 447.1094,201.75 Q445.5938,201.75 444.3906,201.125 Q443.4063,200.625 442.7188,199.5625 Q442.0313,198.4844 442.0313,197.2031 L442.0313,196.0469 Q442.0313,194.7188 442.6406,193.5781 Q443.2656,192.4219 444.3594,191.8125 Q445.4531,191.1875 446.6875,191.1875 Q447.4219,191.1875 448.0625,191.3594 Q448.7188,191.5156 449.2656,191.875 Z " fill="#000000"/><text fill="#000000" font-family="sans-serif" font-size="14" lengthAdjust="spacing" textLength="130.7305" x="460.5" y="201.7969">BookingErrorHandler</text><line style="stroke:#181818;stroke-width:0.5;" x1="432.5" x2="593.2305" y1="212" y2="212"/><line style="stroke:#181818;stroke-width:0.5;" x1="432.5" x2="593.2305" y1="220" y2="220"/><rect fill="#F24D5C" height="6" style="stroke:#C82930;stroke-width:1.0;" width="6" x="439.5" y="231.8105"/><text fill="#000000" font-family="sans-serif" font-size="14" lengthAdjust="spacing" textLength="88.71" x="451.5" y="239.1074">getData(): any</text></g><!--class FlightErrorHandler--><g id="elem_FlightErrorHandler"><rect codeLine="23" fill="#F1F1F1" height="66.6211" id="FlightErrorHandler" rx="2.5" ry="2.5" style="stroke:#181818;stroke-width:0.5;" width="146.3721" x="630" y="180"/><ellipse cx="645" cy="196" fill="#ADD1B2" rx="11" ry="11" style="stroke:#181818;stroke-width:1.0;"/><path d="M647.7656,191.875 Q647.9219,191.6563 648.1094,191.5469 Q648.2969,191.4375 648.5156,191.4375 Q648.8906,191.4375 649.125,191.7031 Q649.3594,191.9531 649.3594,192.5625 L649.3594,194.0156 Q649.3594,194.625 649.125,194.8906 Q648.8906,195.1563 648.5156,195.1563 Q648.1719,195.1563 647.9688,194.9531 Q647.7656,194.7656 647.6563,194.25 Q647.6094,193.8906 647.4219,193.7031 Q647.0938,193.3281 646.4844,193.1094 Q645.875,192.8906 645.25,192.8906 Q644.4844,192.8906 643.8438,193.2188 Q643.2188,193.5469 642.7188,194.2969 Q642.2344,195.0469 642.2344,196.0781 L642.2344,197.1719 Q642.2344,198.4063 643.125,199.2344 Q644.0156,200.0469 645.6094,200.0469 Q646.5469,200.0469 647.2031,199.7969 Q647.5938,199.6406 648.0156,199.2031 Q648.2813,198.9375 648.4219,198.8594 Q648.5781,198.7813 648.7813,198.7813 Q649.1094,198.7813 649.3594,199.0469 Q649.625,199.2969 649.625,199.6406 Q649.625,199.9844 649.2813,200.3906 Q648.7813,200.9688 647.9844,201.2969 Q646.9063,201.75 645.6094,201.75 Q644.0938,201.75 642.8906,201.125 Q641.9063,200.625 641.2188,199.5625 Q640.5313,198.4844 640.5313,197.2031 L640.5313,196.0469 Q640.5313,194.7188 641.1406,193.5781 Q641.7656,192.4219 642.8594,191.8125 Q643.9531,191.1875 645.1875,191.1875 Q645.9219,191.1875 646.5625,191.3594 Q647.2188,191.5156 647.7656,191.875 Z " fill="#000000"/><text fill="#000000" font-family="sans-serif" font-size="14" lengthAdjust="spacing" textLength="114.3721" x="659" y="201.7969">FlightErrorHandler</text><line style="stroke:#181818;stroke-width:0.5;" x1="631" x2="775.3721" y1="212" y2="212"/><line style="stroke:#181818;stroke-width:0.5;" x1="631" x2="775.3721" y1="220" y2="220"/><rect fill="#F24D5C" height="6" style="stroke:#C82930;stroke-width:1.0;" width="6" x="638" y="231.8105"/><text fill="#000000" font-family="sans-serif" font-size="14" lengthAdjust="spacing" textLength="88.71" x="650" y="239.1074">getData(): any</text></g><!--class FlightAPICall--><g id="elem_FlightAPICall"><rect codeLine="26" fill="#F1F1F1" height="66.6211" id="FlightAPICall" rx="2.5" ry="2.5" style="stroke:#181818;stroke-width:0.5;" width="114.71" x="811.5" y="180"/><ellipse cx="827.3068" cy="196" fill="#ADD1B2" rx="11" ry="11" style="stroke:#181818;stroke-width:1.0;"/><path d="M830.0725,191.875 Q830.2287,191.6563 830.4162,191.5469 Q830.6037,191.4375 830.8225,191.4375 Q831.1975,191.4375 831.4318,191.7031 Q831.6662,191.9531 831.6662,192.5625 L831.6662,194.0156 Q831.6662,194.625 831.4318,194.8906 Q831.1975,195.1563 830.8225,195.1563 Q830.4787,195.1563 830.2756,194.9531 Q830.0725,194.7656 829.9631,194.25 Q829.9162,193.8906 829.7287,193.7031 Q829.4006,193.3281 828.7912,193.1094 Q828.1818,192.8906 827.5568,192.8906 Q826.7912,192.8906 826.1506,193.2188 Q825.5256,193.5469 825.0256,194.2969 Q824.5412,195.0469 824.5412,196.0781 L824.5412,197.1719 Q824.5412,198.4063 825.4318,199.2344 Q826.3225,200.0469 827.9162,200.0469 Q828.8537,200.0469 829.51,199.7969 Q829.9006,199.6406 830.3225,199.2031 Q830.5881,198.9375 830.7287,198.8594 Q830.885,198.7813 831.0881,198.7813 Q831.4162,198.7813 831.6662,199.0469 Q831.9318,199.2969 831.9318,199.6406 Q831.9318,199.9844 831.5881,200.3906 Q831.0881,200.9688 830.2912,201.2969 Q829.2131,201.75 827.9162,201.75 Q826.4006,201.75 825.1975,201.125 Q824.2131,200.625 823.5256,199.5625 Q822.8381,198.4844 822.8381,197.2031 L822.8381,196.0469 Q822.8381,194.7188 823.4475,193.5781 Q824.0725,192.4219 825.1662,191.8125 Q826.26,191.1875 827.4943,191.1875 Q828.2287,191.1875 828.8693,191.3594 Q829.5256,191.5156 830.0725,191.875 Z " fill="#000000"/><text fill="#000000" font-family="sans-serif" font-size="14" lengthAdjust="spacing" textLength="80.917" x="841.4861" y="201.7969">FlightAPICall</text><line style="stroke:#181818;stroke-width:0.5;" x1="812.5" x2="925.21" y1="212" y2="212"/><line style="stroke:#181818;stroke-width:0.5;" x1="812.5" x2="925.21" y1="220" y2="220"/><rect fill="#F24D5C" height="6" style="stroke:#C82930;stroke-width:1.0;" width="6" x="819.5" y="231.8105"/><text fill="#000000" font-family="sans-serif" font-size="14" lengthAdjust="spacing" textLength="88.71" x="831.5" y="239.1074">getData(): any</text></g><!--link ExternalController to StrategyContext--><g id="link_ExternalController_StrategyContext"><path codeLine="30" d="M123,111.2 C123,130.59 123,134.4 123,152.8 " fill="none" id="ExternalController-to-StrategyContext" style="stroke:#181818;stroke-width:1.0;"/><polygon fill="none" points="123,170.8,129,152.8,117,152.8,123,170.8" style="stroke:#181818;stroke-width:1.0;"/></g><!--link StrategyContext to APIStrategy--><g id="link_StrategyContext_APIStrategy"><path codeLine="31" d="M232.16,252 C304.6,276.9 379.7761,302.733 438.3561,322.853 " fill="none" id="StrategyContext-to-APIStrategy" style="stroke:#181818;stroke-width:1.0;"/><polygon fill="none" points="455.38,328.7,440.3052,317.1783,436.4071,328.5276,455.38,328.7" style="stroke:#181818;stroke-width:1.0;"/></g><!--link BookingErrorHandler to APIStrategy--><g id="link_BookingErrorHandler_APIStrategy"><path codeLine="33" d="M513,247.28 C513,268.05 513,276.8 513,297.59 " fill="none" id="BookingErrorHandler-to-APIStrategy" style="stroke:#181818;stroke-width:1.0;stroke-dasharray:7.0,7.0;"/><polygon fill="none" points="513,315.59,519,297.59,507,297.59,513,315.59" style="stroke:#181818;stroke-width:1.0;"/></g><!--link BookingAPICall to APIStrategy--><g id="link_BookingAPICall_APIStrategy"><path codeLine="34" d="M376.28,247.28 C404.43,268.12 426.2742,284.2882 454.4042,305.1182 " fill="none" id="BookingAPICall-to-APIStrategy" style="stroke:#181818;stroke-width:1.0;stroke-dasharray:7.0,7.0;"/><polygon fill="none" points="468.87,315.83,457.9748,300.2963,450.8337,309.9402,468.87,315.83" style="stroke:#181818;stroke-width:1.0;"/></g><!--link FlightAPICall to APIStrategy--><g id="link_FlightAPICall_APIStrategy"><path codeLine="35" d="M812.64,247.14 C806.43,250.3 800.14,253.32 794,256 C718.93,288.78 645.6384,311.7135 587.9984,328.0435 " fill="none" id="FlightAPICall-to-APIStrategy" style="stroke:#181818;stroke-width:1.0;stroke-dasharray:7.0,7.0;"/><polygon fill="none" points="570.68,332.95,589.6339,333.8163,586.3629,322.2707,570.68,332.95" style="stroke:#181818;stroke-width:1.0;"/></g><!--link FlightErrorHandler to APIStrategy--><g id="link_FlightErrorHandler_APIStrategy"><path codeLine="36" d="M656.52,247.28 C626.97,268.12 603.5572,284.6222 574.0372,305.4522 " fill="none" id="FlightErrorHandler-to-APIStrategy" style="stroke:#181818;stroke-width:1.0;stroke-dasharray:7.0,7.0;"/><polygon fill="none" points="559.33,315.83,577.4965,310.3547,570.578,300.5498,559.33,315.83" style="stroke:#181818;stroke-width:1.0;"/></g><!--SRC=[bP5D3e8m48NtFKMN6WC7O66YYD6TqHDCO4H2RKqxCHhqxb8GbD_eiZFVlFSw4memXWStGYr1-4gILaAWpjYC6z906Dzj5M_ayKEpa2DdI76ns_eWn6JgyJsQYv86xJ1IXTlELIKHUp8M5dujeMo0T-e8NXqnq5hfYhIAIIwXZn0YpuDKZIoVZP5MG63LGDu_vakbqaJ6xzW_a8Nb1cHKxAK7B-crIE8J_GMFPkWUXJlEOzwvGkjTGb-xOApd7znrMrHpBTr-8_5GUzpY1G00]--></g></svg>